<svg width="15.750000" height="18.000000" viewBox="0 0 15.75 18" fill="none" xmlns="http://www.w3.org/2000/svg" xmlns:xlink="http://www.w3.org/1999/xlink">
	<desc>
			Created with Pixso.
	</desc>
	<defs/>
	<path id="Vector" d="M12.375 18L3.375 18C1.47656 18 0 16.5234 0 14.625L0 12.0938C0 11.6367 0.351562 11.25 0.84375 11.25C1.30078 11.25 1.6875 11.6367 1.6875 12.0938L1.6875 14.625C1.6875 15.5742 2.42578 16.3125 3.375 16.3125L12.375 16.3125C13.2891 16.3125 14.0625 15.5742 14.0625 14.625L14.0625 12.0938C14.0625 11.6367 14.4141 11.25 14.9062 11.25C15.3633 11.25 15.75 11.6367 15.75 12.0938L15.75 14.625C15.75 16.4883 14.2383 18 12.375 18ZM8.4375 12.1641L13.2188 7.66406C13.5703 7.34766 13.5703 6.82031 13.2539 6.46875C12.9375 6.11719 12.4102 6.11719 12.0586 6.43359L8.71875 9.59766L8.71875 0.84375C8.71875 0.386719 8.33203 0 7.875 0C7.38281 0 7.03125 0.386719 7.03125 0.84375L7.03125 9.59766L3.65625 6.43359C3.30469 6.11719 2.77734 6.11719 2.46094 6.46875C2.32031 6.64453 2.25 6.85547 2.25 7.03125C2.25 7.27734 2.32031 7.48828 2.49609 7.66406L7.27734 12.1641C7.59375 12.4805 8.12109 12.4805 8.4375 12.1641Z" fill="#FFFFFF" fill-opacity="1.000000" fill-rule="nonzero"/>
</svg>
