<svg width="16.000000" height="16.000000" viewBox="0 0 16 16" fill="none" xmlns="http://www.w3.org/2000/svg" xmlns:xlink="http://www.w3.org/1999/xlink">
	<desc>
			Created with Pixso.
	</desc>
	<defs/>
	<path id="Vector" d="M4.44446 0C1.99377 0 0 1.99365 0 4.44434L0 11.5557C0 14.0063 1.99377 16 4.44446 16L11.5555 16C14.0062 16 16 14.0063 16 11.5557L16 4.44434C16 1.99365 14.0062 0 11.5555 0L4.44446 0ZM4.44446 1.77783L11.5555 1.77783C13.0258 1.77783 14.2222 2.97412 14.2222 4.44434L14.2222 11.5557C14.2222 13.0259 13.0258 14.2222 11.5555 14.2222L4.44446 14.2222C2.97424 14.2222 1.77777 13.0259 1.77777 11.5557L1.77777 4.44434C1.77777 2.97412 2.97424 1.77783 4.44446 1.77783ZM12.4445 2.6665C12.2087 2.6665 11.9826 2.76025 11.8159 2.92725C11.6492 3.09375 11.5555 3.31982 11.5555 3.55566C11.5555 3.7915 11.6492 4.01758 11.8159 4.18408C11.9826 4.35059 12.2087 4.44434 12.4445 4.44434C12.6802 4.44434 12.9063 4.35059 13.073 4.18408C13.2397 4.01758 13.3333 3.7915 13.3333 3.55566C13.3333 3.31982 13.2397 3.09375 13.073 2.92725C12.9063 2.76025 12.6802 2.6665 12.4445 2.6665ZM8 3.55566C5.54935 3.55566 3.55554 5.54932 3.55554 8C3.55554 10.4507 5.54935 12.4443 8 12.4443C10.4507 12.4443 12.4445 10.4507 12.4445 8C12.4445 5.54932 10.4507 3.55566 8 3.55566ZM8 5.3335C9.47021 5.3335 10.6667 6.52979 10.6667 8C10.6667 9.47021 9.47021 10.6665 8 10.6665C6.52979 10.6665 5.33334 9.47021 5.33334 8C5.33334 6.52979 6.52979 5.3335 8 5.3335Z" fill="#5C8EE6" fill-opacity="1.000000" fill-rule="nonzero"/>
</svg>
