<svg width="0" height="0" class="hidden">
  <symbol fill="none" xmlns="http://www.w3.org/2000/svg" viewBox="0 0 35 26" id="car">
    <path d="M1.75 16.5H20.125C21.0547 16.5 21.875 15.7344 21.875 14.75V2.5C21.875 1.57031 21.0547 0.75 20.125 0.75H1.75C0.765625 0.75 0 1.57031 0 2.5V14.75C0 15.7344 0.765625 16.5 1.75 16.5ZM1.75 2.5H20.125V14.75H1.75V2.5ZM33.9609 10.2656L30.7344 7.03906C30.0781 6.38281 29.2031 6.05469 28.2734 6.05469H24.5C24.0078 6.05469 23.625 6.4375 23.625 6.92969V18.3047H12.4688C11.8125 17.7578 10.9922 17.4297 10.0625 17.4297C8.80469 17.4297 7.71094 17.9766 7 18.9062C6.23438 17.9766 5.14062 17.375 3.9375 17.375C1.75 17.375 0 19.1797 0 21.3125C0 23.5 1.75 25.25 3.9375 25.25C5.14062 25.25 6.23438 24.7031 7 23.7734C7.71094 24.7031 8.80469 25.25 10.0625 25.25C12.1953 25.25 14 23.5 14 21.3125C14 20.875 13.8906 20.4375 13.7266 20H24.5547C24.3906 20.7656 24.4453 21.5312 24.7188 22.3516C25.1562 23.7188 26.3594 24.8125 27.7812 25.1406C30.625 25.8516 33.25 23.6641 33.25 20.875C33.25 20.6016 33.1953 20.3281 33.1406 20H34.125C34.5625 20 35 19.6172 35 19.125V12.7266C35 11.7969 34.6172 10.9219 33.9609 10.2656ZM3.9375 23.5C2.67969 23.5 1.75 22.5703 1.75 21.3125C1.75 20.1094 2.67969 19.125 3.9375 19.125C5.14062 19.125 6.125 20.1094 6.125 21.3125C6.125 22.5703 5.14062 23.5 3.9375 23.5ZM10.0625 23.5C8.80469 23.5 7.875 22.5703 7.875 21.3125C7.875 20.1094 8.80469 19.125 10.0625 19.125C11.2656 19.125 12.25 20.1094 12.25 21.3125C12.25 22.5703 11.2656 23.5 10.0625 23.5ZM25.375 7.75H28.2734C28.7656 7.75 29.2031 7.96875 29.5312 8.29688L32.4844 11.25H25.375V7.75ZM28.875 23.5C27.3984 23.5 26.25 22.3516 26.25 20.875C26.25 19.4531 27.3984 18.25 28.875 18.25C30.2969 18.25 31.5 19.4531 31.5 20.875C31.5 22.3516 30.2969 23.5 28.875 23.5ZM33.25 18.25H32.3203C31.5547 17.2109 30.2969 16.5 28.875 16.5C27.3984 16.5 26.1953 17.2109 25.375 18.25V13H33.25V18.25ZM5.6875 13H6.5625C6.78125 13 7 12.8359 7 12.5625V4.6875C7 4.46875 6.78125 4.25 6.5625 4.25H5.6875C5.41406 4.25 5.25 4.46875 5.25 4.6875V12.5625C5.25 12.8359 5.41406 13 5.6875 13ZM10.9375 13H11.8125C12.0312 13 12.25 12.8359 12.25 12.5625V4.6875C12.25 4.46875 12.0312 4.25 11.8125 4.25H10.9375C10.6641 4.25 10.5 4.46875 10.5 4.6875V12.5625C10.5 12.8359 10.6641 13 10.9375 13ZM16.1875 13H17.0625C17.2812 13 17.5 12.8359 17.5 12.5625V4.6875C17.5 4.46875 17.2812 4.25 17.0625 4.25H16.1875C15.9141 4.25 15.75 4.46875 15.75 4.6875V12.5625C15.75 12.8359 15.9141 13 16.1875 13Z" fill="#5C8EE6"></path>
  </symbol>
  <symbol fill="none" xmlns="http://www.w3.org/2000/svg" viewBox="0 0 21 28" id="clock">
    <path d="M20.125 1.75H20.3438C20.6719 1.75 21 1.47656 21 1.09375V0.65625C21 0.328125 20.6719 0 20.3438 0H0.65625C0.273438 0 0 0.328125 0 0.65625V1.09375C0 1.47656 0.273438 1.75 0.65625 1.75H0.875C0.875 6.78125 3.28125 12.3594 7.92969 14C3.22656 15.6953 0.875 21.2734 0.875 26.25H0.65625C0.273438 26.25 0 26.5781 0 26.9062V27.3438C0 27.7266 0.273438 28 0.65625 28H20.3438C20.6719 28 21 27.7266 21 27.3438V26.9062C21 26.5781 20.6719 26.25 20.3438 26.25H20.125C20.125 21.2734 17.6641 15.6953 13.0156 14C17.7188 12.3594 20.125 6.78125 20.125 1.75ZM2.625 1.75H18.375C18.375 7.82031 14.8203 12.6875 10.5 12.6875C6.125 12.6875 2.625 7.82031 2.625 1.75ZM18.375 26.25H2.625C2.625 20.2344 6.125 15.3125 10.5 15.3125C14.8203 15.3125 18.375 20.2344 18.375 26.25ZM14.7109 8.03906C15.0391 7.65625 14.7109 7 14.1641 7H6.78125C6.23438 7 5.90625 7.65625 6.23438 8.03906C6.34375 8.20312 6.45312 8.36719 6.61719 8.53125C6.72656 8.69531 6.89062 8.75 7.10938 8.75H13.8359C14.0547 8.75 14.2188 8.69531 14.3281 8.53125C14.4922 8.36719 14.6016 8.20312 14.7109 8.03906ZM5.35938 22.75C5.03125 22.75 4.8125 22.9688 4.70312 23.2422C4.70312 23.4062 4.64844 23.5703 4.59375 23.7344C4.53906 24.1172 4.8125 24.5 5.25 24.5H15.6953C16.1328 24.5 16.4062 24.1172 16.3516 23.7344C16.2969 23.5703 16.2422 23.4062 16.2422 23.2422C16.1328 22.9688 15.9141 22.75 15.5859 22.75H5.35938Z" fill="#5C8EE6"></path>
  </symbol>
  <symbol fill="none" xmlns="http://www.w3.org/2000/svg" viewBox="0 0 29 29" id="doc">
    <path d="M27.2216 5.35938L22.6825 0.820312C22.1903 0.328125 21.4794 0 20.8232 0H9.66691C8.19035 0.0546875 7.04191 1.20312 7.04191 2.67969V9.07812C6.71379 9.07812 6.38566 9.02344 5.67473 8.80469C5.62004 8.80469 5.51066 8.80469 5.40129 8.80469C5.12785 8.80469 4.85441 8.91406 4.69035 9.07812C3.70598 10.1172 3.76066 10.0625 2.39348 10.4453C2.01066 10.5547 1.73723 10.8281 1.62785 11.2109C1.29973 12.5781 1.29973 12.5234 0.31535 13.5078C0.0419129 13.7812 -0.0674621 14.2188 0.0419129 14.6016C0.424725 15.9141 0.424725 15.9141 0.0419129 17.2266C-0.0674621 17.6094 0.0419129 18.0469 0.31535 18.3203C1.29973 19.3047 1.29973 19.3047 1.62785 20.6172C1.73723 21 2.01066 21.2734 2.39348 21.3828C2.50285 21.4375 2.55754 21.4375 2.66691 21.4375V27.125C2.66691 27.4531 2.77629 27.7266 3.04973 27.8906C3.32316 28.0547 3.65129 28.0547 3.92473 27.9453L7.04191 26.3594L10.1044 27.9453C10.2685 28 10.3779 28 10.5419 28H25.4169C26.8388 28 28.0419 26.8516 28.0419 25.4297V7.21875C28.0419 6.5625 27.7138 5.85156 27.2216 5.35938ZM21.0419 1.80469C21.1513 1.85938 21.3153 1.91406 21.4247 2.02344L26.0185 6.61719C26.1278 6.72656 26.1825 6.89062 26.2372 7.05469H21.0419V1.80469ZM1.8466 17.3359C2.12004 16.1328 2.12004 15.6953 1.8466 14.4922C2.66691 13.6172 2.88566 13.2344 3.21379 12.0312C4.41691 11.7031 4.74504 11.4844 5.62004 10.6094C6.16691 10.7734 6.54973 10.8281 7.04191 10.8281C7.47941 10.8281 7.86223 10.7734 8.4091 10.6094C9.22941 11.4844 9.61223 11.7031 10.8154 12.0312C11.1435 13.2344 11.3075 13.5625 12.1825 14.4922C11.8544 15.6953 11.8544 16.1328 12.1825 17.3359C11.3622 18.2109 11.1435 18.5938 10.8154 19.7969C9.99504 20.0156 9.50285 20.1797 8.73723 20.8359C8.19035 20.6172 7.64348 20.5078 7.04191 20.5078C6.38566 20.5078 5.83879 20.6172 5.29191 20.8906C4.52629 20.2344 4.0341 20.0156 3.21379 19.7969C2.88566 18.5938 2.7216 18.2656 1.8466 17.3359ZM7.42473 24.6094C7.15129 24.5 6.87785 24.5 6.60441 24.6094L4.41691 25.7578V22.4219C4.41691 22.4766 4.41691 22.4766 4.41691 22.4766C4.63566 22.6953 4.9091 22.75 5.12785 22.75C5.3466 22.75 5.51066 22.6953 5.72941 22.6406C6.11223 22.3672 6.54973 22.2578 7.04191 22.2578C7.47941 22.2578 7.91691 22.3672 8.29973 22.5859C8.51848 22.75 8.68254 22.75 8.90129 22.75C9.17473 22.75 9.39348 22.6953 9.61223 22.4766C9.61223 22.4766 9.61223 22.4766 9.66691 22.4219V25.7578L7.42473 24.6094ZM26.2919 25.4297C26.2919 25.8672 25.8544 26.3047 25.4169 26.3047H11.4169V21.4375C11.4716 21.4375 11.5263 21.4375 11.6357 21.3828C12.0185 21.2734 12.2919 21 12.4013 20.6172C12.7294 19.25 12.7294 19.3047 13.7138 18.3203C13.9872 18.0469 14.0966 17.6094 13.9872 17.2266C13.6044 15.9141 13.6044 15.9141 13.9872 14.6016C14.0966 14.2188 13.9872 13.7812 13.7138 13.5078C12.7294 12.5234 12.7294 12.5234 12.4013 11.2109C12.2919 10.8281 12.0185 10.5547 11.6357 10.4453C10.3232 10.0625 10.3232 10.1172 9.33879 9.07812C9.17473 8.91406 8.95598 8.85938 8.79191 8.80469V2.67969C8.79191 2.1875 9.17473 1.75 9.66691 1.75H19.2919V7.49219C19.2919 8.20312 19.8388 8.75 20.6044 8.75H26.2919V25.4297Z" fill="#5C8EE6"></path>
  </symbol>
  <symbol fill="none" xmlns="http://www.w3.org/2000/svg" viewBox="0 0 140 44" id="main_logo_d">
    <g clip-path="url(#clip0_191_1668)">
      <path fill-rule="evenodd" clip-rule="evenodd" d="M21.9928 4.89351C24.2857 4.89351 26.4733 5.34481 28.4715 6.16361V12.3539V21.8184C28.4715 25.3669 25.5949 28.2436 22.0465 28.2436C20.5375 28.2436 19.15 27.7235 18.0536 26.8527V32.5405C19.2966 33.0038 20.6421 33.2569 22.0465 33.2569C29.0248 33.2569 33.5146 27.7473 33.5146 21.0594V3.25613C30.1638 1.19127 26.2173 0 21.9928 0C9.84658 0 0 9.84658 0 21.9928C0 28.9293 3.21131 35.1156 8.22825 39.1466V32.1397C6.13243 29.3013 4.89351 25.7918 4.89351 21.9928C4.89351 12.5492 12.5492 4.89351 21.9928 4.89351Z" fill="#292D33"></path>
      <path fill-rule="evenodd" clip-rule="evenodd" d="M22.0619 39.1065C19.7688 39.1065 17.5811 38.6552 15.583 37.8364V31.6461V22.1815C15.583 18.6331 18.4597 15.7563 22.0082 15.7563C23.5171 15.7563 24.9044 16.2765 26.0008 17.1473V11.4594C24.7578 10.9962 23.4125 10.7431 22.0082 10.7431C15.0299 10.7431 10.54 16.2527 10.54 22.9406V40.7438C13.8906 42.8087 17.8371 44 22.0619 44C34.2081 44 44.0546 34.1534 44.0546 22.0072C44.0546 15.0707 40.8433 8.88436 35.8264 4.85339V11.8603C37.9222 14.6987 39.1611 18.2082 39.1611 22.0072C39.1611 31.4508 31.5055 39.1065 22.0619 39.1065Z" fill="#5C8EE6"></path>
      <path d="M71.3035 22.5536C71.3035 22.6595 71.2612 22.7443 71.1976 22.8079C71.1339 22.8716 71.028 22.9138 70.9221 22.9138H68.676C68.5701 22.9138 68.4853 22.8716 68.4216 22.8079C68.3582 22.7443 68.2946 22.6595 68.2735 22.5536L67.2985 18.5275H62.4249L61.45 22.5536C61.4289 22.6595 61.3655 22.7443 61.3019 22.8079C61.2382 22.8716 61.1534 22.9138 61.0475 22.9138H58.8014C58.6955 22.9138 58.5896 22.8716 58.5259 22.8079C58.4622 22.7443 58.42 22.6595 58.42 22.5536C58.42 22.5324 58.42 22.5324 58.4411 22.5113C58.4411 22.4902 58.4411 22.4688 58.4411 22.4476L61.9165 9.16164C62.0435 8.67402 62.2342 8.27152 62.4672 7.99603C62.7004 7.72055 62.9759 7.48762 63.2514 7.33916C63.5269 7.19102 63.8023 7.10623 64.099 7.06367C64.3744 7.02144 64.6288 7 64.8617 7C65.095 7 65.349 7.02144 65.6456 7.06367C65.9211 7.10623 66.218 7.19102 66.4935 7.33916C66.769 7.48762 67.0231 7.72055 67.2563 7.99603C67.4892 8.27152 67.6799 8.67402 67.8073 9.16164L71.2824 22.4476C71.2824 22.4688 71.2823 22.4902 71.3035 22.5113C71.3035 22.5324 71.3035 22.5324 71.3035 22.5536ZM65.2009 9.81852C65.1795 9.69117 65.1372 9.60638 65.095 9.54304C65.0524 9.50048 64.9676 9.47936 64.8617 9.47936C64.7558 9.47936 64.671 9.50048 64.6288 9.54304C64.5862 9.60638 64.544 9.69117 64.5226 9.81852L62.997 16.1118H66.7265L65.2009 9.81852Z" fill="#292D33"></path>
      <path d="M81.7927 22.3417C81.7927 22.4902 81.7712 22.5961 81.7079 22.6594C81.6442 22.7231 81.5172 22.7653 81.3687 22.7868C81.2206 22.829 80.9873 22.8716 80.7119 22.8927C80.4153 22.9349 80.0975 22.9775 79.7584 22.9986C79.4192 23.0197 79.0804 23.0408 78.7201 23.0623C78.3598 23.0834 78.0418 23.0834 77.7663 23.0834C77.0672 23.0834 76.4314 23.0197 75.8382 22.9138C75.2447 22.8079 74.7363 22.575 74.2912 22.2569C73.8462 21.9392 73.5073 21.5153 73.253 20.9432C72.9986 20.3711 72.8716 19.6505 72.8716 18.7393V7.59352C72.8716 7.48761 72.9138 7.38139 72.9986 7.29692C73.0834 7.21213 73.1893 7.16958 73.2955 7.16958H75.3932C75.4991 7.16958 75.605 7.21213 75.6898 7.29692C75.7746 7.38139 75.8171 7.48761 75.8171 7.59352V18.7393C75.8171 19.4387 75.9441 19.926 76.1771 20.1804C76.4103 20.4344 76.8554 20.5618 77.4697 20.5618H81.3687C81.4746 20.5618 81.5805 20.604 81.6653 20.6888C81.7501 20.7736 81.7927 20.8795 81.7927 20.9854V22.3417ZM86.7511 22.4902C86.7511 22.5961 86.7085 22.702 86.6237 22.7868C86.5393 22.8716 86.433 22.9138 86.3271 22.9138H84.2295C84.1236 22.9138 84.0177 22.8716 83.9329 22.7868C83.8481 22.702 83.8055 22.5961 83.8055 22.4902V7.57241C83.8055 7.46618 83.8481 7.36027 83.9329 7.27548C84.0177 7.21214 84.1236 7.16958 84.2295 7.16958H86.3271C86.433 7.16958 86.5393 7.21214 86.6237 7.27548C86.7085 7.36027 86.7511 7.46618 86.7511 7.57241V22.4902ZM101.626 22.5535C101.626 22.6594 101.584 22.7442 101.52 22.8079C101.457 22.8716 101.351 22.9138 101.245 22.9138H98.9988C98.8929 22.9138 98.8081 22.8716 98.7444 22.8079C98.6811 22.7442 98.6174 22.6594 98.5963 22.5535L97.6214 18.5275H92.7478L91.7732 22.5535C91.7517 22.6594 91.6884 22.7442 91.6247 22.8079C91.561 22.8716 91.4766 22.9138 91.3703 22.9138H89.1242C89.0183 22.9138 88.9124 22.8716 88.8487 22.8079C88.7854 22.7442 88.7428 22.6594 88.7428 22.5535C88.7428 22.5324 88.7428 22.5324 88.7639 22.5113C88.7639 22.4902 88.7639 22.4687 88.7639 22.4476L92.2393 9.16164C92.3664 8.67402 92.5571 8.27152 92.7903 7.99603C93.0232 7.72055 93.2987 7.48762 93.5742 7.33916C93.8497 7.19102 94.1252 7.10623 94.4218 7.06367C94.6973 7.02144 94.9516 7 95.1846 7C95.4178 7 95.6719 7.02144 95.9688 7.06367C96.2443 7.10623 96.5409 7.19102 96.8164 7.33916C97.0918 7.48762 97.3459 7.72055 97.5791 7.99603C97.8121 8.27152 98.0031 8.67402 98.1301 9.16164L101.605 22.4476C101.605 22.4687 101.605 22.4902 101.626 22.5113C101.626 22.5324 101.626 22.5324 101.626 22.5535ZM95.5237 9.81851C95.5026 9.69117 95.46 9.60638 95.4178 9.54303C95.3753 9.50047 95.2905 9.47936 95.1846 9.47936C95.0787 9.47936 94.9939 9.50047 94.9516 9.54303C94.9091 9.60638 94.8668 9.69117 94.8457 9.81851L93.3198 16.1118H97.0493L95.5237 9.81851ZM115.527 22.0662C115.527 22.2995 115.442 22.5113 115.294 22.6594C115.124 22.829 114.913 22.9138 114.679 22.9138H112.539C112.285 22.9138 112.052 22.8716 111.84 22.8079C111.607 22.7442 111.416 22.5324 111.247 22.151L106.542 11.8314C106.479 11.7255 106.415 11.6618 106.352 11.6618C106.288 11.6618 106.246 11.7255 106.246 11.8314V22.4902C106.246 22.5961 106.203 22.702 106.14 22.7868C106.055 22.8716 105.949 22.9138 105.843 22.9138H104.042C103.936 22.9138 103.83 22.8716 103.745 22.7868C103.661 22.702 103.618 22.5961 103.618 22.4902V8.01714C103.618 7.78422 103.703 7.57241 103.872 7.40283C104.021 7.25437 104.233 7.16958 104.466 7.16958H106.754C106.988 7.16958 107.157 7.21213 107.305 7.29692C107.433 7.38139 107.56 7.57241 107.687 7.84757L112.624 18.7393C112.666 18.8452 112.73 18.9089 112.794 18.9089C112.857 18.9089 112.899 18.8452 112.899 18.7182V7.57241C112.899 7.29692 113.027 7.16958 113.302 7.16958H115.124C115.4 7.16958 115.527 7.29692 115.527 7.57241V22.0662ZM128.072 22.2569C128.072 22.4054 128.029 22.5113 127.945 22.575C127.86 22.6383 127.754 22.702 127.605 22.7442C127.521 22.7653 127.372 22.8079 127.181 22.829C126.97 22.8716 126.715 22.9138 126.419 22.9564C126.122 22.9775 125.783 23.0197 125.423 23.0408C125.063 23.0623 124.66 23.0834 124.257 23.0834C123.622 23.0834 122.944 22.9986 122.244 22.8079C121.545 22.6172 120.888 22.278 120.316 21.7907C119.723 21.3034 119.256 20.6466 118.854 19.8201C118.472 18.9937 118.282 17.9128 118.282 16.5991V13.4843C118.282 12.1494 118.472 11.0686 118.854 10.221C119.256 9.39457 119.723 8.7377 120.316 8.2504C120.888 7.76311 121.545 7.44506 122.244 7.25436C122.944 7.08478 123.622 7 124.257 7C124.66 7 125.063 7.02144 125.423 7.04255C125.783 7.06367 126.122 7.10623 126.419 7.12734C126.715 7.16958 126.97 7.21213 127.181 7.25436C127.372 7.29692 127.521 7.31804 127.605 7.33916C127.754 7.38139 127.86 7.42394 127.945 7.48761C128.029 7.55096 128.072 7.67831 128.072 7.82645V9.24643C128.072 9.37345 128.05 9.47936 127.987 9.56415C127.923 9.64894 127.796 9.69117 127.648 9.69117H127.605C127.415 9.67005 127.203 9.64894 126.948 9.62782C126.673 9.60638 126.398 9.60638 126.101 9.58526C125.804 9.56415 125.507 9.56415 125.19 9.54303C124.872 9.52191 124.575 9.52192 124.3 9.52192C123.855 9.52192 123.431 9.58527 123.071 9.71262C122.689 9.86075 122.371 10.0726 122.096 10.3695C121.821 10.6872 121.609 11.0897 121.46 11.5984C121.312 12.1069 121.227 12.7426 121.227 13.4843V16.5991C121.227 17.3408 121.312 17.9554 121.46 18.4638C121.609 18.9725 121.821 19.3751 122.096 19.6931C122.371 20.0108 122.689 20.2226 123.071 20.35C123.431 20.4981 123.855 20.5618 124.3 20.5618C124.575 20.5618 124.872 20.5618 125.19 20.5407C125.507 20.5192 125.804 20.5192 126.101 20.4981C126.398 20.477 126.673 20.4559 126.948 20.4344C127.203 20.4133 127.415 20.4133 127.605 20.3922H127.648C127.796 20.3922 127.923 20.4344 127.987 20.5192C128.05 20.604 128.072 20.7099 128.072 20.8373V22.2569ZM140.002 22.3417C140.002 22.4902 139.98 22.5961 139.917 22.6594C139.853 22.7231 139.726 22.7653 139.578 22.7868C139.408 22.8079 139.218 22.8501 139.027 22.8716C138.815 22.9138 138.56 22.9563 138.264 22.9775C137.946 22.9986 137.586 23.0408 137.162 23.0623C136.717 23.0834 136.187 23.0834 135.552 23.0834C134.852 23.0834 134.217 23.0197 133.623 22.9138C133.03 22.8079 132.5 22.575 132.076 22.2569C131.631 21.9392 131.271 21.5153 131.017 20.9432C130.763 20.3711 130.635 19.6505 130.635 18.7393V11.3441C130.635 10.4328 130.763 9.71261 131.017 9.1402C131.271 8.56812 131.631 8.12305 132.076 7.80533C132.5 7.48761 133.03 7.27548 133.623 7.16958C134.217 7.06367 134.852 7 135.552 7C136.187 7 136.717 7 137.162 7.02144C137.586 7.04255 137.946 7.08478 138.264 7.10622C138.56 7.12734 138.815 7.16958 139.027 7.19102C139.218 7.23325 139.408 7.27548 139.578 7.29692C139.726 7.31804 139.853 7.36027 139.917 7.42394C139.98 7.48761 140.002 7.59352 140.002 7.74166V9.09797C140.002 9.20387 139.959 9.30978 139.874 9.39457C139.79 9.47936 139.684 9.52192 139.578 9.52192H135.255C134.64 9.52192 134.196 9.64894 133.962 9.90331C133.708 10.1574 133.581 10.6447 133.581 11.3441V13.6327H139.324C139.429 13.6327 139.535 13.675 139.62 13.7598C139.705 13.8446 139.747 13.9505 139.747 14.0564V15.5819C139.747 15.6882 139.705 15.7941 139.62 15.8789C139.535 15.9636 139.429 16.0059 139.324 16.0059H133.581V18.7393C133.581 19.4387 133.708 19.926 133.962 20.1804C134.196 20.4344 134.64 20.5618 135.255 20.5618H139.578C139.684 20.5618 139.79 20.604 139.874 20.6888C139.959 20.7736 140.002 20.8795 140.002 20.9854V22.3417Z" fill="#292D33"></path>
      <path d="M65.8759 29.9868C65.8759 30.5816 65.7677 31.0816 65.565 31.4867C65.3489 31.8921 65.0653 32.2167 64.7002 32.4597C64.349 32.7167 63.9303 32.8921 63.4706 32.9866C62.9979 33.0948 62.4979 33.149 61.9707 33.149C61.7953 33.149 61.5925 33.1354 61.3492 33.1218C61.1195 33.1084 60.9168 33.1084 60.768 33.0948V36.6215C60.768 36.6891 60.7411 36.7567 60.7005 36.8109C60.6465 36.8648 60.579 36.8918 60.5114 36.8918H59.1603C59.0927 36.8918 59.0251 36.8648 58.9709 36.8109C58.917 36.7567 58.89 36.6891 58.89 36.6215V27.3249C58.89 27.1897 58.9306 27.0952 59.0115 27.0276C59.0791 26.9737 59.1873 26.9331 59.3224 26.9198C59.6736 26.8655 60.079 26.8249 60.5384 26.7846C60.998 26.7573 61.4844 26.744 61.9843 26.744C62.4979 26.744 62.9979 26.7979 63.4706 26.8925C63.9303 26.987 64.349 27.1628 64.7002 27.4061C65.0653 27.6494 65.3489 27.9736 65.565 28.3654C65.7677 28.7709 65.8759 29.2708 65.8759 29.8653V29.9868ZM63.9978 29.8517C63.9978 29.2845 63.8354 28.879 63.4979 28.6494C63.16 28.406 62.6464 28.2845 61.9707 28.2845C61.9031 28.2845 61.8086 28.2845 61.7004 28.2845C61.5789 28.2978 61.4707 28.2978 61.3492 28.2978C61.2277 28.3115 61.1195 28.3115 61.025 28.3115C60.9168 28.3248 60.8356 28.3248 60.768 28.3385V31.5679C60.8223 31.5679 60.9032 31.5679 61.025 31.5679C61.1332 31.5816 61.2547 31.5816 61.3762 31.5816C61.498 31.5949 61.6059 31.5949 61.7277 31.5949C61.8355 31.6085 61.9168 31.6085 61.9707 31.6085C62.7003 31.6085 63.2276 31.4734 63.5382 31.2031C63.8491 30.9328 63.9978 30.5274 63.9978 29.9735V29.8517ZM74.6456 36.7297C74.6456 36.8379 74.5917 36.8918 74.4835 36.8918H72.8348C72.7672 36.8918 72.7133 36.8648 72.6727 36.8109C72.6324 36.7567 72.6051 36.6891 72.5648 36.6215L70.6189 33.0272H70.4298C70.2541 33.0272 70.0377 33.0139 69.808 33.0003C69.5784 32.9866 69.3756 32.9866 69.2272 32.9733V36.6215C69.2272 36.6891 69.1999 36.7567 69.1596 36.8109C69.1054 36.8648 69.0378 36.8918 68.9702 36.8918H67.6191C67.5515 36.8918 67.484 36.8648 67.43 36.8109C67.3758 36.7567 67.3488 36.6891 67.3488 36.6215V27.3249C67.3488 27.1897 67.3894 27.0952 67.4703 27.0276C67.5379 26.9737 67.6461 26.9331 67.7812 26.9198C68.1324 26.8655 68.5378 26.8249 68.9975 26.7846C69.4569 26.7573 69.9432 26.744 70.4431 26.744C70.9568 26.744 71.4567 26.7979 71.9297 26.8925C72.3891 27.0007 72.8078 27.1764 73.1593 27.4061C73.5242 27.6358 73.8078 27.9467 74.0241 28.3385C74.2268 28.7302 74.3347 29.2169 74.3347 29.7977V29.9192C74.3347 30.6356 74.1726 31.2301 73.8347 31.6761C73.5105 32.1218 73.0645 32.4597 72.4973 32.676L74.6186 36.6215C74.6319 36.6488 74.6456 36.6891 74.6456 36.7297ZM72.4567 29.7977C72.4567 29.2845 72.2945 28.9196 71.9567 28.6896C71.6188 28.46 71.1052 28.3521 70.4298 28.3521C70.3623 28.3521 70.2674 28.3521 70.1595 28.3521C70.0377 28.3654 69.9299 28.3654 69.808 28.3654C69.6865 28.3791 69.5784 28.3791 69.4838 28.3791C69.3756 28.3924 69.2948 28.3924 69.2272 28.406V31.4464C69.2811 31.4464 69.3623 31.4464 69.4838 31.4464C69.592 31.4597 69.7135 31.4598 69.835 31.4598C69.9568 31.4734 70.0647 31.4734 70.1865 31.4734C70.2947 31.4867 70.3756 31.4867 70.4298 31.4867C71.1322 31.4867 71.6458 31.3789 71.97 31.1492C72.2945 30.9195 72.4567 30.5141 72.4567 29.9192V29.7977Z" fill="#5C8EE6"></path>
      <path d="M83.3208 32.7842C83.3208 33.5272 83.2259 34.176 83.0368 34.7029C82.8341 35.2298 82.5775 35.6622 82.226 36.0001C81.8884 36.3379 81.483 36.5946 81.01 36.7567C80.5507 36.9188 80.037 37 79.4831 37C78.9156 37 78.402 36.9188 77.9426 36.7567C77.4696 36.5946 77.0642 36.3379 76.7267 36.0001C76.3888 35.6622 76.1185 35.2298 75.9291 34.7029C75.7264 34.176 75.6319 33.5272 75.6319 32.7842V30.9598C75.6319 30.2168 75.7264 29.5817 75.9291 29.0411C76.1185 28.5142 76.3888 28.0682 76.7267 27.7303C77.0642 27.3925 77.4696 27.1495 77.9426 26.987C78.402 26.8249 78.9156 26.744 79.4831 26.744C80.037 26.744 80.5507 26.8249 81.01 26.987C81.483 27.1495 81.8884 27.3925 82.226 27.7303C82.5775 28.0682 82.8341 28.5142 83.0368 29.0411C83.2259 29.5817 83.3208 30.2168 83.3208 30.9598V32.7842ZM81.4424 30.9598C81.4424 30.0544 81.2803 29.406 80.9561 28.9869C80.6452 28.5818 80.1452 28.3791 79.4831 28.3791C78.8074 28.3791 78.3075 28.5818 77.9966 28.9869C77.6724 29.406 77.5102 30.0544 77.5102 30.9598V32.7842C77.5102 33.6893 77.6724 34.3381 77.9966 34.7435C78.3075 35.1623 78.8074 35.365 79.4831 35.365C80.1452 35.365 80.6452 35.1623 80.9561 34.7435C81.2803 34.3381 81.4424 33.6893 81.4424 32.7842V30.9598ZM92.3604 32.8651C92.3604 34.2029 91.9956 35.2298 91.2523 35.9325C90.5227 36.6488 89.4688 37 88.1177 37C87.8607 37 87.6177 37 87.3475 36.9864C87.0772 36.9731 86.8205 36.9594 86.5772 36.9461C86.3202 36.9324 86.1042 36.9055 85.9015 36.8918C85.6988 36.8785 85.5367 36.8512 85.4421 36.8379C85.3206 36.8243 85.2394 36.784 85.1855 36.7164C85.1179 36.6488 85.0906 36.554 85.0906 36.4188V27.3249C85.0906 27.1897 85.1179 27.0952 85.1855 27.0276C85.2394 26.9601 85.3206 26.9198 85.4421 26.9061C85.5367 26.8925 85.6988 26.8655 85.9015 26.8522C86.1042 26.8386 86.3202 26.8116 86.5772 26.798C86.8205 26.7846 87.0772 26.771 87.3475 26.7573C87.6177 26.744 87.8607 26.744 88.1177 26.744C89.4688 26.744 90.5227 27.0952 91.2523 27.7979C91.9956 28.5142 92.3604 29.5411 92.3604 30.8789V32.8651ZM90.4824 30.8789C90.4824 30.3789 90.4281 29.9599 90.3066 29.6356C90.1851 29.2978 90.0094 29.0411 89.8067 28.8384C89.5903 28.6494 89.3337 28.5142 89.0501 28.433C88.7528 28.3654 88.4419 28.3248 88.1041 28.3248C87.8474 28.3248 87.6311 28.3248 87.4553 28.3385C87.2799 28.3521 87.1178 28.3521 86.969 28.3654V35.3919C87.1178 35.4056 87.2799 35.4056 87.4553 35.4189C87.6311 35.4325 87.8474 35.4325 88.1041 35.4325C88.4419 35.4325 88.7528 35.3919 89.0501 35.3111C89.3337 35.2435 89.5903 35.1083 89.8067 34.9056C90.0094 34.7165 90.1851 34.4596 90.3066 34.1217C90.4281 33.7975 90.4824 33.3787 90.4824 32.8788V30.8789ZM101.468 33.176C101.468 33.892 101.373 34.5002 101.198 34.9865C101.009 35.4732 100.752 35.8649 100.427 36.1622C100.09 36.4594 99.6978 36.6758 99.2518 36.7973C98.7924 36.9325 98.2925 37 97.7519 37C97.2116 37 96.7117 36.9325 96.2656 36.7973C95.8063 36.6758 95.4145 36.4594 95.0899 36.1622C94.7521 35.8649 94.4954 35.4732 94.3197 34.9865C94.1306 34.5002 94.0361 33.892 94.0361 33.176V27.1088C94.0361 27.0413 94.063 26.9737 94.1173 26.9198C94.1712 26.8792 94.2388 26.8522 94.3064 26.8522H95.6442C95.7117 26.8522 95.7793 26.8792 95.8332 26.9198C95.8872 26.9737 95.9144 27.0413 95.9144 27.1088V33.1894C95.9144 33.5678 95.9414 33.9057 95.9953 34.1893C96.0496 34.4732 96.1441 34.7165 96.2926 34.9056C96.4277 35.0947 96.6168 35.2298 96.8468 35.3244C97.0765 35.4189 97.3871 35.4595 97.7519 35.4595C98.117 35.4595 98.4143 35.4189 98.6573 35.3244C98.887 35.2298 99.0764 35.0947 99.2248 34.9056C99.36 34.7165 99.4545 34.4732 99.5087 34.1893C99.5627 33.9057 99.5896 33.5678 99.5896 33.1894V27.1088C99.5896 27.0413 99.6169 26.9737 99.6709 26.9198C99.7248 26.8792 99.7924 26.8522 99.8599 26.8522H101.198C101.265 26.8522 101.333 26.8792 101.387 26.9198C101.441 26.9737 101.468 27.0413 101.468 27.1088V33.176ZM109.4 36.4731C109.4 36.5676 109.373 36.6352 109.319 36.6758C109.265 36.7164 109.197 36.7567 109.103 36.784C109.048 36.7973 108.954 36.8243 108.832 36.8379C108.697 36.8649 108.535 36.8918 108.346 36.9188C108.157 36.9325 107.941 36.9594 107.711 36.9731C107.481 36.9864 107.224 37 106.968 37C106.562 37 106.13 36.9461 105.684 36.8243C105.238 36.7028 104.819 36.4864 104.454 36.1758C104.076 35.8649 103.779 35.4462 103.522 34.9189C103.279 34.392 103.157 33.703 103.157 32.8651V30.8789C103.157 30.0274 103.279 29.3384 103.522 28.7978C103.779 28.2709 104.076 27.8521 104.454 27.5412C104.819 27.2303 105.238 27.0276 105.684 26.9061C106.13 26.798 106.562 26.744 106.968 26.744C107.224 26.744 107.481 26.7573 107.711 26.771C107.941 26.7846 108.157 26.8116 108.346 26.8249C108.535 26.8522 108.697 26.8792 108.832 26.9061C108.954 26.9331 109.048 26.9467 109.103 26.9601C109.197 26.987 109.265 27.0143 109.319 27.0546C109.373 27.0952 109.4 27.1764 109.4 27.271V28.1764C109.4 28.2572 109.386 28.3248 109.346 28.3791C109.305 28.433 109.224 28.46 109.13 28.46H109.103C108.981 28.4466 108.846 28.433 108.684 28.4194C108.508 28.406 108.332 28.406 108.143 28.3924C107.954 28.3791 107.765 28.3791 107.562 28.3654C107.359 28.3521 107.17 28.3521 106.995 28.3521C106.711 28.3521 106.441 28.3924 106.211 28.4736C105.968 28.5681 105.765 28.7033 105.589 28.8924C105.413 29.0951 105.278 29.352 105.184 29.6763C105.089 30.0005 105.035 30.4059 105.035 30.8789V32.8651C105.035 33.3381 105.089 33.7299 105.184 34.0541C105.278 34.3787 105.413 34.6353 105.589 34.838C105.765 35.0408 105.968 35.1759 106.211 35.2568C106.441 35.3513 106.711 35.3919 106.995 35.3919C107.17 35.3919 107.359 35.3919 107.562 35.3786C107.765 35.365 107.954 35.365 108.143 35.3513C108.332 35.338 108.508 35.3244 108.684 35.3111C108.846 35.2974 108.981 35.2974 109.103 35.2838H109.13C109.224 35.2838 109.305 35.311 109.346 35.365C109.386 35.4189 109.4 35.4865 109.4 35.5677V36.4731ZM117.508 28.1764C117.508 28.2439 117.48 28.3115 117.426 28.3521C117.372 28.3924 117.305 28.4194 117.237 28.4194H114.873V36.6216C114.873 36.6891 114.845 36.7567 114.791 36.811C114.737 36.8649 114.67 36.8918 114.602 36.8918H113.264C113.197 36.8918 113.129 36.8649 113.075 36.811C113.021 36.7567 112.994 36.6891 112.994 36.6216V28.4194H110.63C110.562 28.4194 110.494 28.3924 110.44 28.3521C110.386 28.3115 110.359 28.2439 110.359 28.1764V27.1088C110.359 27.0413 110.386 26.9737 110.44 26.9198C110.494 26.8792 110.562 26.8522 110.63 26.8522H117.237C117.305 26.8522 117.372 26.8792 117.426 26.9198C117.48 26.9737 117.508 27.0413 117.508 27.1088V28.1764ZM120.737 36.6216C120.737 36.6891 120.71 36.7567 120.656 36.811C120.602 36.8649 120.534 36.8918 120.467 36.8918H119.129C119.061 36.8918 118.994 36.8649 118.94 36.811C118.886 36.7567 118.859 36.6891 118.859 36.6216V27.1088C118.859 27.0413 118.886 26.9737 118.94 26.9198C118.994 26.8792 119.061 26.8522 119.129 26.8522H120.467C120.534 26.8522 120.602 26.8792 120.656 26.9198C120.71 26.9737 120.737 27.0413 120.737 27.1088V36.6216ZM130.182 32.7842C130.182 33.5272 130.088 34.176 129.898 34.7029C129.696 35.2298 129.439 35.6622 129.088 36.0001C128.75 36.3379 128.344 36.5946 127.871 36.7567C127.412 36.9188 126.899 37 126.344 37C125.777 37 125.264 36.9188 124.804 36.7567C124.331 36.5946 123.926 36.3379 123.588 36.0001C123.25 35.6622 122.98 35.2298 122.791 34.7029C122.588 34.176 122.494 33.5272 122.494 32.7842V30.9598C122.494 30.2168 122.588 29.5817 122.791 29.0411C122.98 28.5142 123.25 28.0682 123.588 27.7303C123.926 27.3925 124.331 27.1495 124.804 26.987C125.264 26.8249 125.777 26.744 126.344 26.744C126.899 26.744 127.412 26.8249 127.871 26.987C128.344 27.1495 128.75 27.3925 129.088 27.7303C129.439 28.0682 129.696 28.5142 129.898 29.0411C130.088 29.5817 130.182 30.2168 130.182 30.9598V32.7842ZM128.304 30.9598C128.304 30.0544 128.142 29.406 127.817 28.9869C127.507 28.5818 127.007 28.3791 126.344 28.3791C125.669 28.3791 125.169 28.5818 124.858 28.9869C124.534 29.406 124.372 30.0544 124.372 30.9598V32.7842C124.372 33.6893 124.534 34.3381 124.858 34.7435C125.169 35.1623 125.669 35.365 126.344 35.365C127.007 35.365 127.507 35.1623 127.817 34.7435C128.142 34.3381 128.304 33.6893 128.304 32.7842V30.9598ZM139.546 36.3516C139.546 36.5001 139.492 36.6352 139.398 36.7297C139.29 36.8379 139.155 36.8918 139.006 36.8918H137.641C137.479 36.8918 137.33 36.8649 137.195 36.8243C137.046 36.784 136.925 36.6488 136.817 36.4055L133.817 29.8247C133.776 29.7571 133.736 29.7169 133.696 29.7169C133.655 29.7169 133.628 29.7571 133.628 29.8247V36.6216C133.628 36.6891 133.601 36.7567 133.56 36.811C133.506 36.8649 133.439 36.8918 133.371 36.8918H132.223C132.155 36.8918 132.087 36.8649 132.033 36.811C131.979 36.7567 131.952 36.6891 131.952 36.6216V27.3925C131.952 27.244 132.006 27.1088 132.114 27.0007C132.209 26.9061 132.344 26.8522 132.493 26.8522H133.952C134.101 26.8522 134.209 26.8792 134.303 26.9331C134.385 26.987 134.465 27.1088 134.547 27.2846L137.695 34.2299C137.722 34.2975 137.763 34.3381 137.803 34.3381C137.844 34.3381 137.871 34.2975 137.871 34.2166V27.1088C137.871 26.9331 137.952 26.8522 138.128 26.8522H139.29C139.465 26.8522 139.546 26.9331 139.546 27.1088V36.3516Z" fill="#5C8EE6"></path>
    </g>
    <defs>
      <clipPath id="clip0_191_1668">
        <rect width="140" height="44" fill="white"></rect>
      </clipPath>
    </defs>
  </symbol>
  <symbol fill="none" xmlns="http://www.w3.org/2000/svg" viewBox="0 0 140 44" id="main_logo_l">
    <g clip-path="url(#clip0_191_1609)">
      <path fill-rule="evenodd" clip-rule="evenodd" d="M21.9928 4.89351C24.2857 4.89351 26.4733 5.34481 28.4715 6.16361V12.3539V21.8184C28.4715 25.3669 25.5949 28.2436 22.0465 28.2436C20.5375 28.2436 19.15 27.7235 18.0536 26.8527V32.5405C19.2966 33.0038 20.6421 33.2569 22.0465 33.2569C29.0248 33.2569 33.5146 27.7473 33.5146 21.0594V3.25613C30.1638 1.19127 26.2173 0 21.9928 0C9.84658 0 0 9.84658 0 21.9928C0 28.9293 3.21131 35.1156 8.22825 39.1466V32.1397C6.13243 29.3013 4.89351 25.7918 4.89351 21.9928C4.89351 12.5492 12.5492 4.89351 21.9928 4.89351Z" fill="white"></path>
      <path fill-rule="evenodd" clip-rule="evenodd" d="M22.0619 39.1065C19.7688 39.1065 17.5811 38.6552 15.583 37.8364V31.6461V22.1815C15.583 18.6331 18.4597 15.7563 22.0082 15.7563C23.5171 15.7563 24.9044 16.2765 26.0008 17.1473V11.4594C24.7578 10.9962 23.4125 10.7431 22.0082 10.7431C15.0299 10.7431 10.54 16.2527 10.54 22.9406V40.7438C13.8906 42.8087 17.8371 44 22.0619 44C34.2081 44 44.0546 34.1534 44.0546 22.0072C44.0546 15.0707 40.8433 8.88436 35.8264 4.85339V11.8603C37.9222 14.6987 39.1611 18.2082 39.1611 22.0072C39.1611 31.4508 31.5055 39.1065 22.0619 39.1065Z" fill="#5C8EE6"></path>
      <path d="M71.3035 22.5536C71.3035 22.6595 71.2612 22.7443 71.1976 22.8079C71.1339 22.8716 71.028 22.9138 70.9221 22.9138H68.676C68.5701 22.9138 68.4853 22.8716 68.4216 22.8079C68.3582 22.7443 68.2946 22.6595 68.2735 22.5536L67.2985 18.5275H62.4249L61.45 22.5536C61.4289 22.6595 61.3655 22.7443 61.3019 22.8079C61.2382 22.8716 61.1534 22.9138 61.0475 22.9138H58.8014C58.6955 22.9138 58.5896 22.8716 58.5259 22.8079C58.4622 22.7443 58.42 22.6595 58.42 22.5536C58.42 22.5324 58.42 22.5324 58.4411 22.5113C58.4411 22.4902 58.4411 22.4688 58.4411 22.4476L61.9165 9.16164C62.0435 8.67402 62.2342 8.27152 62.4672 7.99603C62.7004 7.72055 62.9759 7.48762 63.2514 7.33916C63.5269 7.19102 63.8023 7.10623 64.099 7.06367C64.3744 7.02144 64.6288 7 64.8617 7C65.095 7 65.349 7.02144 65.6456 7.06367C65.9211 7.10623 66.218 7.19102 66.4935 7.33916C66.769 7.48762 67.0231 7.72055 67.2563 7.99603C67.4892 8.27152 67.6799 8.67402 67.8073 9.16164L71.2824 22.4476C71.2824 22.4688 71.2823 22.4902 71.3035 22.5113C71.3035 22.5324 71.3035 22.5324 71.3035 22.5536ZM65.2009 9.81852C65.1795 9.69117 65.1372 9.60638 65.095 9.54304C65.0524 9.50048 64.9676 9.47936 64.8617 9.47936C64.7558 9.47936 64.671 9.50048 64.6288 9.54304C64.5862 9.60638 64.544 9.69117 64.5226 9.81852L62.997 16.1118H66.7265L65.2009 9.81852Z" fill="white"></path>
      <path d="M81.7927 22.3417C81.7927 22.4902 81.7712 22.5961 81.7079 22.6594C81.6442 22.7231 81.5172 22.7653 81.3687 22.7868C81.2206 22.829 80.9873 22.8716 80.7119 22.8927C80.4153 22.9349 80.0975 22.9775 79.7584 22.9986C79.4192 23.0197 79.0804 23.0408 78.7201 23.0623C78.3598 23.0834 78.0418 23.0834 77.7663 23.0834C77.0672 23.0834 76.4314 23.0197 75.8382 22.9138C75.2447 22.8079 74.7363 22.575 74.2912 22.2569C73.8462 21.9392 73.5073 21.5153 73.253 20.9432C72.9986 20.3711 72.8716 19.6505 72.8716 18.7393V7.59352C72.8716 7.48761 72.9138 7.38139 72.9986 7.29692C73.0834 7.21213 73.1893 7.16958 73.2955 7.16958H75.3932C75.4991 7.16958 75.605 7.21213 75.6898 7.29692C75.7746 7.38139 75.8171 7.48761 75.8171 7.59352V18.7393C75.8171 19.4387 75.9441 19.926 76.1771 20.1804C76.4103 20.4344 76.8554 20.5618 77.4697 20.5618H81.3687C81.4746 20.5618 81.5805 20.604 81.6653 20.6888C81.7501 20.7736 81.7927 20.8795 81.7927 20.9854V22.3417ZM86.7511 22.4902C86.7511 22.5961 86.7085 22.702 86.6237 22.7868C86.5393 22.8716 86.433 22.9138 86.3271 22.9138H84.2295C84.1236 22.9138 84.0177 22.8716 83.9329 22.7868C83.8481 22.702 83.8055 22.5961 83.8055 22.4902V7.57241C83.8055 7.46618 83.8481 7.36027 83.9329 7.27548C84.0177 7.21214 84.1236 7.16958 84.2295 7.16958H86.3271C86.433 7.16958 86.5393 7.21214 86.6237 7.27548C86.7085 7.36027 86.7511 7.46618 86.7511 7.57241V22.4902ZM101.626 22.5535C101.626 22.6594 101.584 22.7442 101.52 22.8079C101.457 22.8716 101.351 22.9138 101.245 22.9138H98.9988C98.8929 22.9138 98.8081 22.8716 98.7444 22.8079C98.6811 22.7442 98.6174 22.6594 98.5963 22.5535L97.6214 18.5275H92.7478L91.7732 22.5535C91.7517 22.6594 91.6884 22.7442 91.6247 22.8079C91.561 22.8716 91.4766 22.9138 91.3703 22.9138H89.1242C89.0183 22.9138 88.9124 22.8716 88.8487 22.8079C88.7854 22.7442 88.7428 22.6594 88.7428 22.5535C88.7428 22.5324 88.7428 22.5324 88.7639 22.5113C88.7639 22.4902 88.7639 22.4687 88.7639 22.4476L92.2393 9.16164C92.3664 8.67402 92.5571 8.27152 92.7903 7.99603C93.0232 7.72055 93.2987 7.48762 93.5742 7.33916C93.8497 7.19102 94.1252 7.10623 94.4218 7.06367C94.6973 7.02144 94.9516 7 95.1846 7C95.4178 7 95.6719 7.02144 95.9688 7.06367C96.2443 7.10623 96.5409 7.19102 96.8164 7.33916C97.0918 7.48762 97.3459 7.72055 97.5791 7.99603C97.8121 8.27152 98.0031 8.67402 98.1301 9.16164L101.605 22.4476C101.605 22.4687 101.605 22.4902 101.626 22.5113C101.626 22.5324 101.626 22.5324 101.626 22.5535ZM95.5237 9.81851C95.5026 9.69117 95.46 9.60638 95.4178 9.54303C95.3753 9.50047 95.2905 9.47936 95.1846 9.47936C95.0787 9.47936 94.9939 9.50047 94.9516 9.54303C94.9091 9.60638 94.8668 9.69117 94.8457 9.81851L93.3198 16.1118H97.0493L95.5237 9.81851ZM115.527 22.0662C115.527 22.2995 115.442 22.5113 115.294 22.6594C115.124 22.829 114.913 22.9138 114.679 22.9138H112.539C112.285 22.9138 112.052 22.8716 111.84 22.8079C111.607 22.7442 111.416 22.5324 111.247 22.151L106.542 11.8314C106.479 11.7255 106.415 11.6618 106.352 11.6618C106.288 11.6618 106.246 11.7255 106.246 11.8314V22.4902C106.246 22.5961 106.203 22.702 106.14 22.7868C106.055 22.8716 105.949 22.9138 105.843 22.9138H104.042C103.936 22.9138 103.83 22.8716 103.745 22.7868C103.661 22.702 103.618 22.5961 103.618 22.4902V8.01714C103.618 7.78422 103.703 7.57241 103.872 7.40283C104.021 7.25437 104.233 7.16958 104.466 7.16958H106.754C106.988 7.16958 107.157 7.21213 107.305 7.29692C107.433 7.38139 107.56 7.57241 107.687 7.84757L112.624 18.7393C112.666 18.8452 112.73 18.9089 112.794 18.9089C112.857 18.9089 112.899 18.8452 112.899 18.7182V7.57241C112.899 7.29692 113.027 7.16958 113.302 7.16958H115.124C115.4 7.16958 115.527 7.29692 115.527 7.57241V22.0662ZM128.072 22.2569C128.072 22.4054 128.029 22.5113 127.945 22.575C127.86 22.6383 127.754 22.702 127.605 22.7442C127.521 22.7653 127.372 22.8079 127.181 22.829C126.97 22.8716 126.715 22.9138 126.419 22.9564C126.122 22.9775 125.783 23.0197 125.423 23.0408C125.063 23.0623 124.66 23.0834 124.257 23.0834C123.622 23.0834 122.944 22.9986 122.244 22.8079C121.545 22.6172 120.888 22.278 120.316 21.7907C119.723 21.3034 119.256 20.6466 118.854 19.8201C118.472 18.9937 118.282 17.9128 118.282 16.5991V13.4843C118.282 12.1494 118.472 11.0686 118.854 10.221C119.256 9.39457 119.723 8.7377 120.316 8.2504C120.888 7.76311 121.545 7.44506 122.244 7.25436C122.944 7.08478 123.622 7 124.257 7C124.66 7 125.063 7.02144 125.423 7.04255C125.783 7.06367 126.122 7.10623 126.419 7.12734C126.715 7.16958 126.97 7.21213 127.181 7.25436C127.372 7.29692 127.521 7.31804 127.605 7.33916C127.754 7.38139 127.86 7.42394 127.945 7.48761C128.029 7.55096 128.072 7.67831 128.072 7.82645V9.24643C128.072 9.37345 128.05 9.47936 127.987 9.56415C127.923 9.64894 127.796 9.69117 127.648 9.69117H127.605C127.415 9.67005 127.203 9.64894 126.948 9.62782C126.673 9.60638 126.398 9.60638 126.101 9.58526C125.804 9.56415 125.507 9.56415 125.19 9.54303C124.872 9.52191 124.575 9.52192 124.3 9.52192C123.855 9.52192 123.431 9.58527 123.071 9.71262C122.689 9.86075 122.371 10.0726 122.096 10.3695C121.821 10.6872 121.609 11.0897 121.46 11.5984C121.312 12.1069 121.227 12.7426 121.227 13.4843V16.5991C121.227 17.3408 121.312 17.9554 121.46 18.4638C121.609 18.9725 121.821 19.3751 122.096 19.6931C122.371 20.0108 122.689 20.2226 123.071 20.35C123.431 20.4981 123.855 20.5618 124.3 20.5618C124.575 20.5618 124.872 20.5618 125.19 20.5407C125.507 20.5192 125.804 20.5192 126.101 20.4981C126.398 20.477 126.673 20.4559 126.948 20.4344C127.203 20.4133 127.415 20.4133 127.605 20.3922H127.648C127.796 20.3922 127.923 20.4344 127.987 20.5192C128.05 20.604 128.072 20.7099 128.072 20.8373V22.2569ZM140.002 22.3417C140.002 22.4902 139.98 22.5961 139.917 22.6594C139.853 22.7231 139.726 22.7653 139.578 22.7868C139.408 22.8079 139.218 22.8501 139.027 22.8716C138.815 22.9138 138.56 22.9563 138.264 22.9775C137.946 22.9986 137.586 23.0408 137.162 23.0623C136.717 23.0834 136.187 23.0834 135.552 23.0834C134.852 23.0834 134.217 23.0197 133.623 22.9138C133.03 22.8079 132.5 22.575 132.076 22.2569C131.631 21.9392 131.271 21.5153 131.017 20.9432C130.763 20.3711 130.635 19.6505 130.635 18.7393V11.3441C130.635 10.4328 130.763 9.71261 131.017 9.1402C131.271 8.56812 131.631 8.12305 132.076 7.80533C132.5 7.48761 133.03 7.27548 133.623 7.16958C134.217 7.06367 134.852 7 135.552 7C136.187 7 136.717 7 137.162 7.02144C137.586 7.04255 137.946 7.08478 138.264 7.10622C138.56 7.12734 138.815 7.16958 139.027 7.19102C139.218 7.23325 139.408 7.27548 139.578 7.29692C139.726 7.31804 139.853 7.36027 139.917 7.42394C139.98 7.48761 140.002 7.59352 140.002 7.74166V9.09797C140.002 9.20387 139.959 9.30978 139.874 9.39457C139.79 9.47936 139.684 9.52192 139.578 9.52192H135.255C134.64 9.52192 134.196 9.64894 133.962 9.90331C133.708 10.1574 133.581 10.6447 133.581 11.3441V13.6327H139.324C139.429 13.6327 139.535 13.675 139.62 13.7598C139.705 13.8446 139.747 13.9505 139.747 14.0564V15.5819C139.747 15.6882 139.705 15.7941 139.62 15.8789C139.535 15.9636 139.429 16.0059 139.324 16.0059H133.581V18.7393C133.581 19.4387 133.708 19.926 133.962 20.1804C134.196 20.4344 134.64 20.5618 135.255 20.5618H139.578C139.684 20.5618 139.79 20.604 139.874 20.6888C139.959 20.7736 140.002 20.8795 140.002 20.9854V22.3417Z" fill="white"></path>
      <path d="M65.8759 29.9868C65.8759 30.5816 65.7677 31.0816 65.565 31.4867C65.3489 31.8921 65.0653 32.2167 64.7002 32.4597C64.349 32.7167 63.9303 32.8921 63.4706 32.9866C62.9979 33.0948 62.4979 33.149 61.9707 33.149C61.7953 33.149 61.5925 33.1354 61.3492 33.1218C61.1195 33.1084 60.9168 33.1084 60.768 33.0948V36.6215C60.768 36.6891 60.7411 36.7567 60.7005 36.8109C60.6465 36.8648 60.579 36.8918 60.5114 36.8918H59.1603C59.0927 36.8918 59.0251 36.8648 58.9709 36.8109C58.917 36.7567 58.89 36.6891 58.89 36.6215V27.3249C58.89 27.1897 58.9306 27.0952 59.0115 27.0276C59.0791 26.9737 59.1873 26.9331 59.3224 26.9198C59.6736 26.8655 60.079 26.8249 60.5384 26.7846C60.998 26.7573 61.4844 26.744 61.9843 26.744C62.4979 26.744 62.9979 26.7979 63.4706 26.8925C63.9303 26.987 64.349 27.1628 64.7002 27.4061C65.0653 27.6494 65.3489 27.9736 65.565 28.3654C65.7677 28.7709 65.8759 29.2708 65.8759 29.8653V29.9868ZM63.9978 29.8517C63.9978 29.2845 63.8354 28.879 63.4979 28.6494C63.16 28.406 62.6464 28.2845 61.9707 28.2845C61.9031 28.2845 61.8086 28.2845 61.7004 28.2845C61.5789 28.2978 61.4707 28.2978 61.3492 28.2978C61.2277 28.3115 61.1195 28.3115 61.025 28.3115C60.9168 28.3248 60.8356 28.3248 60.768 28.3385V31.5679C60.8223 31.5679 60.9032 31.5679 61.025 31.5679C61.1332 31.5816 61.2547 31.5816 61.3762 31.5816C61.498 31.5949 61.6059 31.5949 61.7277 31.5949C61.8355 31.6085 61.9168 31.6085 61.9707 31.6085C62.7003 31.6085 63.2276 31.4734 63.5382 31.2031C63.8491 30.9328 63.9978 30.5274 63.9978 29.9735V29.8517ZM74.6456 36.7297C74.6456 36.8379 74.5917 36.8918 74.4835 36.8918H72.8348C72.7672 36.8918 72.7133 36.8648 72.6727 36.8109C72.6324 36.7567 72.6051 36.6891 72.5648 36.6215L70.6189 33.0272H70.4298C70.2541 33.0272 70.0377 33.0139 69.808 33.0003C69.5784 32.9866 69.3756 32.9866 69.2272 32.9733V36.6215C69.2272 36.6891 69.1999 36.7567 69.1596 36.8109C69.1054 36.8648 69.0378 36.8918 68.9702 36.8918H67.6191C67.5515 36.8918 67.484 36.8648 67.43 36.8109C67.3758 36.7567 67.3488 36.6891 67.3488 36.6215V27.3249C67.3488 27.1897 67.3894 27.0952 67.4703 27.0276C67.5379 26.9737 67.6461 26.9331 67.7812 26.9198C68.1324 26.8655 68.5378 26.8249 68.9975 26.7846C69.4569 26.7573 69.9432 26.744 70.4431 26.744C70.9568 26.744 71.4567 26.7979 71.9297 26.8925C72.3891 27.0007 72.8078 27.1764 73.1593 27.4061C73.5242 27.6358 73.8078 27.9467 74.0241 28.3385C74.2268 28.7302 74.3347 29.2169 74.3347 29.7977V29.9192C74.3347 30.6356 74.1726 31.2301 73.8347 31.6761C73.5105 32.1218 73.0645 32.4597 72.4973 32.676L74.6186 36.6215C74.6319 36.6488 74.6456 36.6891 74.6456 36.7297ZM72.4567 29.7977C72.4567 29.2845 72.2945 28.9196 71.9567 28.6896C71.6188 28.46 71.1052 28.3521 70.4298 28.3521C70.3623 28.3521 70.2674 28.3521 70.1595 28.3521C70.0377 28.3654 69.9299 28.3654 69.808 28.3654C69.6865 28.3791 69.5784 28.3791 69.4838 28.3791C69.3756 28.3924 69.2948 28.3924 69.2272 28.406V31.4464C69.2811 31.4464 69.3623 31.4464 69.4838 31.4464C69.592 31.4597 69.7135 31.4598 69.835 31.4598C69.9568 31.4734 70.0647 31.4734 70.1865 31.4734C70.2947 31.4867 70.3756 31.4867 70.4298 31.4867C71.1322 31.4867 71.6458 31.3789 71.97 31.1492C72.2945 30.9195 72.4567 30.5141 72.4567 29.9192V29.7977Z" fill="#5C8EE6"></path>
      <path d="M83.3208 32.7842C83.3208 33.5272 83.2259 34.176 83.0368 34.7029C82.8341 35.2298 82.5775 35.6622 82.226 36.0001C81.8884 36.3379 81.483 36.5946 81.01 36.7567C80.5507 36.9188 80.037 37 79.4831 37C78.9156 37 78.402 36.9188 77.9426 36.7567C77.4696 36.5946 77.0642 36.3379 76.7267 36.0001C76.3888 35.6622 76.1185 35.2298 75.9291 34.7029C75.7264 34.176 75.6319 33.5272 75.6319 32.7842V30.9598C75.6319 30.2168 75.7264 29.5817 75.9291 29.0411C76.1185 28.5142 76.3888 28.0682 76.7267 27.7303C77.0642 27.3925 77.4696 27.1495 77.9426 26.987C78.402 26.8249 78.9156 26.744 79.4831 26.744C80.037 26.744 80.5507 26.8249 81.01 26.987C81.483 27.1495 81.8884 27.3925 82.226 27.7303C82.5775 28.0682 82.8341 28.5142 83.0368 29.0411C83.2259 29.5817 83.3208 30.2168 83.3208 30.9598V32.7842ZM81.4424 30.9598C81.4424 30.0544 81.2803 29.406 80.9561 28.9869C80.6452 28.5818 80.1452 28.3791 79.4831 28.3791C78.8074 28.3791 78.3075 28.5818 77.9966 28.9869C77.6724 29.406 77.5102 30.0544 77.5102 30.9598V32.7842C77.5102 33.6893 77.6724 34.3381 77.9966 34.7435C78.3075 35.1623 78.8074 35.365 79.4831 35.365C80.1452 35.365 80.6452 35.1623 80.9561 34.7435C81.2803 34.3381 81.4424 33.6893 81.4424 32.7842V30.9598ZM92.3604 32.8651C92.3604 34.2029 91.9956 35.2298 91.2523 35.9325C90.5227 36.6488 89.4688 37 88.1177 37C87.8607 37 87.6177 37 87.3475 36.9864C87.0772 36.9731 86.8205 36.9594 86.5772 36.9461C86.3202 36.9324 86.1042 36.9055 85.9015 36.8918C85.6988 36.8785 85.5367 36.8512 85.4421 36.8379C85.3206 36.8243 85.2394 36.784 85.1855 36.7164C85.1179 36.6488 85.0906 36.554 85.0906 36.4188V27.3249C85.0906 27.1897 85.1179 27.0952 85.1855 27.0276C85.2394 26.9601 85.3206 26.9198 85.4421 26.9061C85.5367 26.8925 85.6988 26.8655 85.9015 26.8522C86.1042 26.8386 86.3202 26.8116 86.5772 26.798C86.8205 26.7846 87.0772 26.771 87.3475 26.7573C87.6177 26.744 87.8607 26.744 88.1177 26.744C89.4688 26.744 90.5227 27.0952 91.2523 27.7979C91.9956 28.5142 92.3604 29.5411 92.3604 30.8789V32.8651ZM90.4824 30.8789C90.4824 30.3789 90.4281 29.9599 90.3066 29.6356C90.1851 29.2978 90.0094 29.0411 89.8067 28.8384C89.5903 28.6494 89.3337 28.5142 89.0501 28.433C88.7528 28.3654 88.4419 28.3248 88.1041 28.3248C87.8474 28.3248 87.6311 28.3248 87.4553 28.3385C87.2799 28.3521 87.1178 28.3521 86.969 28.3654V35.3919C87.1178 35.4056 87.2799 35.4056 87.4553 35.4189C87.6311 35.4325 87.8474 35.4325 88.1041 35.4325C88.4419 35.4325 88.7528 35.3919 89.0501 35.3111C89.3337 35.2435 89.5903 35.1083 89.8067 34.9056C90.0094 34.7165 90.1851 34.4596 90.3066 34.1217C90.4281 33.7975 90.4824 33.3787 90.4824 32.8788V30.8789ZM101.468 33.176C101.468 33.892 101.373 34.5002 101.198 34.9865C101.009 35.4732 100.752 35.8649 100.427 36.1622C100.09 36.4594 99.6978 36.6758 99.2518 36.7973C98.7924 36.9325 98.2925 37 97.7519 37C97.2116 37 96.7117 36.9325 96.2656 36.7973C95.8063 36.6758 95.4145 36.4594 95.0899 36.1622C94.7521 35.8649 94.4954 35.4732 94.3197 34.9865C94.1306 34.5002 94.0361 33.892 94.0361 33.176V27.1088C94.0361 27.0413 94.063 26.9737 94.1173 26.9198C94.1712 26.8792 94.2388 26.8522 94.3064 26.8522H95.6442C95.7117 26.8522 95.7793 26.8792 95.8332 26.9198C95.8872 26.9737 95.9144 27.0413 95.9144 27.1088V33.1894C95.9144 33.5678 95.9414 33.9057 95.9953 34.1893C96.0496 34.4732 96.1441 34.7165 96.2926 34.9056C96.4277 35.0947 96.6168 35.2298 96.8468 35.3244C97.0765 35.4189 97.3871 35.4595 97.7519 35.4595C98.117 35.4595 98.4143 35.4189 98.6573 35.3244C98.887 35.2298 99.0764 35.0947 99.2248 34.9056C99.36 34.7165 99.4545 34.4732 99.5087 34.1893C99.5627 33.9057 99.5896 33.5678 99.5896 33.1894V27.1088C99.5896 27.0413 99.6169 26.9737 99.6709 26.9198C99.7248 26.8792 99.7924 26.8522 99.8599 26.8522H101.198C101.265 26.8522 101.333 26.8792 101.387 26.9198C101.441 26.9737 101.468 27.0413 101.468 27.1088V33.176ZM109.4 36.4731C109.4 36.5676 109.373 36.6352 109.319 36.6758C109.265 36.7164 109.197 36.7567 109.103 36.784C109.048 36.7973 108.954 36.8243 108.832 36.8379C108.697 36.8649 108.535 36.8918 108.346 36.9188C108.157 36.9325 107.941 36.9594 107.711 36.9731C107.481 36.9864 107.224 37 106.968 37C106.562 37 106.13 36.9461 105.684 36.8243C105.238 36.7028 104.819 36.4864 104.454 36.1758C104.076 35.8649 103.779 35.4462 103.522 34.9189C103.279 34.392 103.157 33.703 103.157 32.8651V30.8789C103.157 30.0274 103.279 29.3384 103.522 28.7978C103.779 28.2709 104.076 27.8521 104.454 27.5412C104.819 27.2303 105.238 27.0276 105.684 26.9061C106.13 26.798 106.562 26.744 106.968 26.744C107.224 26.744 107.481 26.7573 107.711 26.771C107.941 26.7846 108.157 26.8116 108.346 26.8249C108.535 26.8522 108.697 26.8792 108.832 26.9061C108.954 26.9331 109.048 26.9467 109.103 26.9601C109.197 26.987 109.265 27.0143 109.319 27.0546C109.373 27.0952 109.4 27.1764 109.4 27.271V28.1764C109.4 28.2572 109.386 28.3248 109.346 28.3791C109.305 28.433 109.224 28.46 109.13 28.46H109.103C108.981 28.4466 108.846 28.433 108.684 28.4194C108.508 28.406 108.332 28.406 108.143 28.3924C107.954 28.3791 107.765 28.3791 107.562 28.3654C107.359 28.3521 107.17 28.3521 106.995 28.3521C106.711 28.3521 106.441 28.3924 106.211 28.4736C105.968 28.5681 105.765 28.7033 105.589 28.8924C105.413 29.0951 105.278 29.352 105.184 29.6763C105.089 30.0005 105.035 30.4059 105.035 30.8789V32.8651C105.035 33.3381 105.089 33.7299 105.184 34.0541C105.278 34.3787 105.413 34.6353 105.589 34.838C105.765 35.0408 105.968 35.1759 106.211 35.2568C106.441 35.3513 106.711 35.3919 106.995 35.3919C107.17 35.3919 107.359 35.3919 107.562 35.3786C107.765 35.365 107.954 35.365 108.143 35.3513C108.332 35.338 108.508 35.3244 108.684 35.3111C108.846 35.2974 108.981 35.2974 109.103 35.2838H109.13C109.224 35.2838 109.305 35.311 109.346 35.365C109.386 35.4189 109.4 35.4865 109.4 35.5677V36.4731ZM117.508 28.1764C117.508 28.2439 117.48 28.3115 117.426 28.3521C117.372 28.3924 117.305 28.4194 117.237 28.4194H114.873V36.6216C114.873 36.6891 114.845 36.7567 114.791 36.811C114.737 36.8649 114.67 36.8918 114.602 36.8918H113.264C113.197 36.8918 113.129 36.8649 113.075 36.811C113.021 36.7567 112.994 36.6891 112.994 36.6216V28.4194H110.63C110.562 28.4194 110.494 28.3924 110.44 28.3521C110.386 28.3115 110.359 28.2439 110.359 28.1764V27.1088C110.359 27.0413 110.386 26.9737 110.44 26.9198C110.494 26.8792 110.562 26.8522 110.63 26.8522H117.237C117.305 26.8522 117.372 26.8792 117.426 26.9198C117.48 26.9737 117.508 27.0413 117.508 27.1088V28.1764ZM120.737 36.6216C120.737 36.6891 120.71 36.7567 120.656 36.811C120.602 36.8649 120.534 36.8918 120.467 36.8918H119.129C119.061 36.8918 118.994 36.8649 118.94 36.811C118.886 36.7567 118.859 36.6891 118.859 36.6216V27.1088C118.859 27.0413 118.886 26.9737 118.94 26.9198C118.994 26.8792 119.061 26.8522 119.129 26.8522H120.467C120.534 26.8522 120.602 26.8792 120.656 26.9198C120.71 26.9737 120.737 27.0413 120.737 27.1088V36.6216ZM130.182 32.7842C130.182 33.5272 130.088 34.176 129.898 34.7029C129.696 35.2298 129.439 35.6622 129.088 36.0001C128.75 36.3379 128.344 36.5946 127.871 36.7567C127.412 36.9188 126.899 37 126.344 37C125.777 37 125.264 36.9188 124.804 36.7567C124.331 36.5946 123.926 36.3379 123.588 36.0001C123.25 35.6622 122.98 35.2298 122.791 34.7029C122.588 34.176 122.494 33.5272 122.494 32.7842V30.9598C122.494 30.2168 122.588 29.5817 122.791 29.0411C122.98 28.5142 123.25 28.0682 123.588 27.7303C123.926 27.3925 124.331 27.1495 124.804 26.987C125.264 26.8249 125.777 26.744 126.344 26.744C126.899 26.744 127.412 26.8249 127.871 26.987C128.344 27.1495 128.75 27.3925 129.088 27.7303C129.439 28.0682 129.696 28.5142 129.898 29.0411C130.088 29.5817 130.182 30.2168 130.182 30.9598V32.7842ZM128.304 30.9598C128.304 30.0544 128.142 29.406 127.817 28.9869C127.507 28.5818 127.007 28.3791 126.344 28.3791C125.669 28.3791 125.169 28.5818 124.858 28.9869C124.534 29.406 124.372 30.0544 124.372 30.9598V32.7842C124.372 33.6893 124.534 34.3381 124.858 34.7435C125.169 35.1623 125.669 35.365 126.344 35.365C127.007 35.365 127.507 35.1623 127.817 34.7435C128.142 34.3381 128.304 33.6893 128.304 32.7842V30.9598ZM139.546 36.3516C139.546 36.5001 139.492 36.6352 139.398 36.7297C139.29 36.8379 139.155 36.8918 139.006 36.8918H137.641C137.479 36.8918 137.33 36.8649 137.195 36.8243C137.046 36.784 136.925 36.6488 136.817 36.4055L133.817 29.8247C133.776 29.7571 133.736 29.7169 133.696 29.7169C133.655 29.7169 133.628 29.7571 133.628 29.8247V36.6216C133.628 36.6891 133.601 36.7567 133.56 36.811C133.506 36.8649 133.439 36.8918 133.371 36.8918H132.223C132.155 36.8918 132.087 36.8649 132.033 36.811C131.979 36.7567 131.952 36.6891 131.952 36.6216V27.3925C131.952 27.244 132.006 27.1088 132.114 27.0007C132.209 26.9061 132.344 26.8522 132.493 26.8522H133.952C134.101 26.8522 134.209 26.8792 134.303 26.9331C134.385 26.987 134.465 27.1088 134.547 27.2846L137.695 34.2299C137.722 34.2975 137.763 34.3381 137.803 34.3381C137.844 34.3381 137.871 34.2975 137.871 34.2166V27.1088C137.871 26.9331 137.952 26.8522 138.128 26.8522H139.29C139.465 26.8522 139.546 26.9331 139.546 27.1088V36.3516Z" fill="#5C8EE6"></path>
    </g>
    <defs>
      <clipPath id="clip0_191_1609">
        <rect width="140" height="44" fill="white"></rect>
      </clipPath>
    </defs>
  </symbol>
  <symbol fill="none" xmlns="http://www.w3.org/2000/svg" viewBox="0 0 25 28" id="man">
    <path d="M17.1172 19.25C15.5312 19.25 14.8203 20.125 12.25 20.125C9.625 20.125 8.91406 19.25 7.32812 19.25C3.28125 19.25 0 22.5859 0 26.6328C0 27.3984 0.601562 28 1.36719 28H23.0781C23.8438 28 24.5 27.3984 24.5 26.6328C24.5 22.5859 21.1641 19.25 17.1172 19.25ZM1.75 26.25C1.91406 23.3516 4.375 21.0547 7.32812 21C8.42188 21 9.46094 21.875 12.25 21.875C15.0391 21.875 16.0234 21 17.1172 21C20.0703 21.0547 22.5312 23.3516 22.6953 26.25H1.75ZM4.8125 8.75H5.46875C5.30469 9.35156 5.25 9.89844 5.25 10.5C5.25 14.3828 8.36719 17.5 12.25 17.5C16.0781 17.5 19.25 14.3828 19.25 10.5C19.1953 9.89844 19.1406 9.35156 18.9766 8.75H19.6875C19.9062 8.75 20.125 8.58594 20.125 8.3125V7.4375C20.125 7.21875 19.9062 7 19.6875 7H19.25C19.25 4.21094 17.3359 1.85938 14.7109 1.14844C14.4922 0.492188 13.8359 0.0546875 13.125 0H11.375C10.6094 0.0546875 9.95312 0.492188 9.73438 1.14844C7.16406 1.85938 5.25 4.21094 5.25 7H4.8125C4.53906 7 4.375 7.21875 4.375 7.4375V8.3125C4.375 8.58594 4.53906 8.75 4.8125 8.75ZM14.875 3.00781C16.4062 3.71875 17.4453 5.25 17.5 7H14.875V3.00781ZM11.375 1.75H13.125V7H11.375V1.75ZM7 7C7 5.25 8.03906 3.71875 9.625 3.00781V7H7ZM7.32812 8.75H17.1719C17.3359 9.29688 17.4453 9.89844 17.5 10.5C17.5 13.3984 15.0938 15.75 12.25 15.75C9.35156 15.75 7 13.3984 7 10.5C7 9.89844 7.10938 9.29688 7.32812 8.75Z" fill="#5C8EE6"></path>
  </symbol>
  <symbol xmlns="http://www.w3.org/2000/svg" viewBox="0 0 16 17" id="phone">
    <path class="phone-icon" d="M15.9688 12.0822L15.2188 15.2384C15.125 15.7072 14.75 16.0197 14.2812 16.0197C6.40625 15.9884 0 9.58218 0 1.70718C0 1.23843 0.28125 0.86343 0.75 0.76968L3.90625 0.0196803C4.34375 -0.0740697 4.8125 0.17593 5 0.58218L6.46875 3.98843C6.625 4.39468 6.53125 4.86343 6.1875 5.11343L4.5 6.48843C5.5625 8.64468 7.3125 10.3947 9.5 11.4572L10.875 9.76968C11.125 9.45718 11.5938 9.33218 12 9.48843L15.4062 10.9572C15.8125 11.1759 16.0625 11.6447 15.9688 12.0822Z" ></path>
  </symbol>
  <symbol fill="none" xmlns="http://www.w3.org/2000/svg" viewBox="0 0 32 25" id="speed">
    <path d="M9.625 7.875C8.64062 7.875 7.875 8.69531 7.875 9.625C7.875 10.6094 8.64062 11.375 9.625 11.375C10.5547 11.375 11.375 10.6094 11.375 9.625C11.375 8.69531 10.5547 7.875 9.625 7.875ZM15.75 0C7.05469 0 0 7.05469 0 15.75C0 18.6484 0.765625 21.3828 2.13281 23.6797C2.40625 24.2266 3.00781 24.5547 3.60938 24.5547H27.8359C28.4375 24.5547 29.0391 24.2266 29.3672 23.6797C30.6797 21.3828 31.5 18.6484 31.5 15.75C31.5 7.05469 24.4453 0 15.75 0ZM15.75 21.875C14.4922 21.875 13.5625 20.9453 13.5625 19.6875C13.5625 18.4844 14.4922 17.5 15.75 17.5C16.9531 17.5 17.9375 18.4844 17.9375 19.6875C17.9375 20.9453 16.9531 21.875 15.75 21.875ZM27.3438 21.875H20.0156C20.3438 21.2188 20.5625 20.5078 20.5625 19.6875C20.5625 19.3594 20.5078 19.0312 20.3984 18.7031L25.4297 16.5703C26.0859 16.2422 26.4141 15.4766 26.1406 14.8203C25.8125 14.1641 25.0469 13.8359 24.3906 14.1094L19.1953 16.3516C18.3203 15.4766 17.0625 14.875 15.75 14.875C13.0703 14.875 10.9375 17.0625 10.9375 19.6875C10.9375 20.5078 11.1016 21.2188 11.4844 21.875H4.10156C3.11719 20.0156 2.625 17.9375 2.625 15.75C2.625 8.53125 8.47656 2.625 15.75 2.625C22.9688 2.625 28.875 8.53125 28.875 15.75C28.875 17.9375 28.3281 20.0156 27.3438 21.875ZM7 14C6.01562 14 5.25 14.8203 5.25 15.75C5.25 16.7344 6.01562 17.5 7 17.5C7.92969 17.5 8.75 16.7344 8.75 15.75C8.75 14.8203 7.92969 14 7 14ZM15.75 5.25C14.7656 5.25 14 6.07031 14 7C14 7.98438 14.7656 8.75 15.75 8.75C16.6797 8.75 17.5 7.98438 17.5 7C17.5 6.07031 16.6797 5.25 15.75 5.25ZM21.875 7.875C20.8906 7.875 20.125 8.69531 20.125 9.625C20.125 10.6094 20.8906 11.375 21.875 11.375C22.8047 11.375 23.625 10.6094 23.625 9.625C23.625 8.69531 22.8047 7.875 21.875 7.875Z" fill="#5C8EE6"></path>
  </symbol>
	<symbol  xmlns="http://www.w3.org/2000/svg" xmlns:xlink="http://www.w3.org/1999/xlink" viewBox="0 0 140 120.089" id="brand_01">
    <desc>Created with Pixso.</desc>
    <defs></defs>
    <path  d="M98.0283 26.4163L84.4525 26.4163L81.002 20.8728L74.3273 10.5212L58.4889 35.1272L51.1919 46.5535L45.2525 55.8303L37.9556 67.2L31.9596 76.4768L24.6626 87.9031L11.1434 87.9031L18.4404 76.4768L24.3798 67.2L31.6768 55.8303L37.6162 46.5535L67.5394 0L81.1152 0L87.7333 10.3516L94.5212 20.8728L98.0283 26.4163ZM137.511 87.9031L37.2202 87.9031L45.3091 76.4768L51.2485 67.2L58.5455 55.8303L64.5414 46.5535L71.8384 35.1272L103.685 35.1272L110.982 46.5535L78.0606 46.5535L72.1212 55.8303L64.8242 67.2L58.8849 76.4768L116.638 76.4768L110.699 67.2L76.5899 67.2L84.1697 55.8303L116.921 55.8303L124.275 67.2L130.214 76.4768L137.511 87.9031ZM19.8546 120.089L18.2141 117.147L9.22021 117.147L11.4263 113.018L16.0646 113.018L12.7838 106.853L5.71313 120.089L0 120.089L9.84244 102.271C10.3515 101.309 11.1434 100.857 12.1616 100.857L13.3495 100.857C14.3111 100.857 15.103 101.309 15.6121 102.271L25.4545 120.089L19.8546 120.089ZM34.901 120.089C33.4303 120.089 32.0727 119.863 30.8283 119.41C29.5838 118.958 28.5091 118.279 27.604 117.43C26.699 116.638 25.9636 115.62 25.4546 114.432C24.9455 113.244 24.7192 111.943 24.7192 110.473C24.7192 109.059 24.9455 107.701 25.4546 106.57C25.9636 105.382 26.699 104.364 27.604 103.515C28.5091 102.667 29.5838 101.988 30.8283 101.535C32.0727 101.083 33.4303 100.857 34.901 100.857L45.196 100.857L45.196 105.778L34.5616 105.778C33.8828 105.778 33.2606 105.891 32.6949 106.117C32.0727 106.344 31.6202 106.683 31.1677 107.079C30.7717 107.531 30.4323 107.984 30.2061 108.606C29.9798 109.172 29.8667 109.794 29.8667 110.473C29.8667 111.152 29.9798 111.774 30.2061 112.396C30.4323 112.962 30.7717 113.414 31.1677 113.81C31.6202 114.263 32.0727 114.545 32.6949 114.772C33.2606 114.998 33.8828 115.111 34.5616 115.111L40.2747 115.111L40.2747 112.509L34.0525 112.509L34.0525 108.38L45.196 108.38L45.196 120.089L34.901 120.089ZM62.5051 120.089L62.5051 105.778L55.3778 105.778L55.3778 100.857L74.7232 100.857L74.7232 105.778L67.6525 105.778L67.6525 120.089L62.5051 120.089ZM76.9858 120.089L76.9858 100.857L95.4263 100.857L95.4263 105.778L82.1333 105.778L82.1333 115.111L95.4828 115.111L95.4828 120.089L76.9858 120.089ZM108.097 120.089C106.57 120.089 105.212 119.863 103.968 119.41C102.723 118.958 101.648 118.279 100.8 117.43C99.895 116.638 99.1596 115.62 98.6505 114.432C98.1414 113.244 97.8586 111.943 97.8586 110.473C97.8586 109.059 98.1414 107.701 98.6505 106.57C99.1596 105.382 99.895 104.364 100.8 103.515C101.648 102.667 102.723 101.988 103.968 101.535C105.212 101.083 106.57 100.857 108.097 100.857L117.487 100.857L117.487 105.778L107.701 105.778C107.022 105.778 106.4 105.891 105.834 106.117C105.269 106.344 104.76 106.683 104.364 107.079C103.968 107.531 103.628 107.984 103.402 108.606C103.176 109.172 103.063 109.794 103.063 110.473C103.063 111.152 103.176 111.774 103.402 112.396C103.628 112.962 103.968 113.414 104.364 113.81C104.76 114.263 105.269 114.545 105.834 114.772C106.4 114.998 107.022 115.111 107.701 115.111L117.487 115.111L117.487 120.089L108.097 120.089ZM120.372 120.089L120.372 100.857L125.576 100.857L125.576 120.089L120.372 120.089ZM134.853 120.089L134.853 112.622L127.329 112.622L127.329 107.927L134.853 107.927L134.853 100.857L140 100.857L140 120.089L134.853 120.089ZM83.8869 112.509L83.8869 108.38L95.2566 108.38L95.2566 112.509L83.8869 112.509Z"></path>
  </symbol>
	<symbol  xmlns="http://www.w3.org/2000/svg" xmlns:xlink="http://www.w3.org/1999/xlink" viewBox="0 0 102.027 140" id="brand_02">
    <desc>Created with Pixso.</desc>
    <defs></defs>
    <path  d="M64.0149 12.4329C59.9862 10.7849 55.572 9.87891 50.9459 9.87891C31.8917 9.87891 16.4423 25.3188 16.4423 44.3728C16.4423 52.0349 18.9481 59.1189 23.1694 64.8438L23.1694 78.9824C13.0497 70.8481 6.573 58.3672 6.573 44.3728C6.573 19.8638 26.4368 0 50.9459 0C59.4658 0 67.4266 2.40942 74.1829 6.573L74.1829 42.4934C74.1829 55.9768 65.1328 67.0989 51.0519 67.0989C48.2184 67.0989 45.5005 66.5881 42.9946 65.6533L42.9946 54.1746C45.2113 55.9287 48.0063 56.9792 51.0519 56.9792C58.2129 56.9792 64.0149 51.1772 64.0149 44.0164L64.0149 12.4329ZM38.0118 76.332C42.0405 77.9897 46.4546 78.8958 51.0808 78.8958C70.1349 78.8958 85.5748 63.4558 85.5748 44.4019C85.5748 36.7397 83.0786 29.6558 78.8475 23.9309L78.8475 9.79199C88.9771 17.9265 95.4536 30.4075 95.4536 44.4019C95.4536 68.9014 75.59 88.7747 51.0808 88.7747C42.5609 88.7747 34.6 86.3652 27.8342 82.2017L27.8342 46.2812C27.8342 32.7881 36.8938 21.6755 50.9749 21.6755C53.8083 21.6755 56.5262 22.1865 59.0321 23.1213L59.0321 34.6001C56.8153 32.8362 54.0204 31.7856 50.9749 31.7856C43.8138 31.7856 38.0118 37.5974 38.0118 44.7488L38.0118 76.332ZM16.1145 121.929C16.1145 122.073 16.0664 122.179 15.9796 122.257C15.8928 122.343 15.7772 122.382 15.6327 122.382L12.828 122.382C12.7028 122.382 12.5967 122.334 12.51 122.247C12.4232 122.16 12.3558 122.054 12.3269 121.929L11.1029 116.898L5.01172 116.898L3.78772 121.929C3.75879 122.054 3.69128 122.16 3.60461 122.247C3.51782 122.334 3.41187 122.382 3.2865 122.382L0.481934 122.382C0.33728 122.382 0.22168 122.343 0.134888 122.257C0.0482178 122.179 0 122.073 0 121.929C0 121.91 0.00964355 121.89 0.00964355 121.881C0.0192871 121.862 0.0289307 121.833 0.0289307 121.794L4.37561 105.178C4.52979 104.562 4.76111 104.08 5.05994 103.723C5.35864 103.376 5.6864 103.106 6.03333 102.913C6.37061 102.73 6.72729 102.615 7.09351 102.557C7.45007 102.509 7.77783 102.48 8.05725 102.48C8.33679 102.48 8.66443 102.509 9.02112 102.557C9.38733 102.615 9.7439 102.73 10.0812 102.913C10.4282 103.106 10.7462 103.376 11.0547 103.723C11.3534 104.08 11.5847 104.562 11.7389 105.178L16.0857 121.794C16.0857 121.833 16.0952 121.862 16.0952 121.881C16.1049 121.89 16.1145 121.91 16.1145 121.929ZM54.03 121.929C54.03 122.073 53.9915 122.179 53.9047 122.257C53.818 122.343 53.7023 122.382 53.5577 122.382L50.7435 122.382C50.6278 122.382 50.5219 122.334 50.4351 122.247C50.3387 122.16 50.2809 122.054 50.2423 121.929L49.028 116.898L42.9271 116.898L41.7128 121.929C41.6742 122.054 41.6165 122.16 41.5297 122.247C41.4333 122.334 41.3273 122.382 41.2117 122.382L38.3973 122.382C38.2625 122.382 38.1467 122.343 38.0504 122.257C37.9636 122.179 37.925 122.073 37.925 121.929C37.925 121.91 37.925 121.89 37.9347 121.881C37.9443 121.862 37.9443 121.833 37.9443 121.794L42.291 105.178C42.455 104.562 42.6862 104.08 42.985 103.723C43.2838 103.376 43.6018 103.106 43.9487 102.913C44.2958 102.73 44.6523 102.615 45.0089 102.557C45.3752 102.509 45.6932 102.48 45.9824 102.48C46.2618 102.48 46.58 102.509 46.9462 102.557C47.3124 102.615 47.6594 102.73 48.0063 102.913C48.3533 103.106 48.6714 103.376 48.9701 103.723C49.2689 104.08 49.5002 104.562 49.6641 105.178L54.0107 121.794C54.0107 121.833 54.0107 121.862 54.0204 121.881C54.03 121.89 54.03 121.91 54.03 121.929ZM87.1073 121.563C87.1073 121.755 87.0494 121.89 86.9434 121.968C86.8374 122.054 86.7024 122.112 86.5193 122.17C86.4133 122.208 86.2399 122.247 85.9796 122.286C85.7194 122.334 85.411 122.372 85.0352 122.42C84.6688 122.469 84.2544 122.507 83.7919 122.536C83.3389 122.575 82.8473 122.594 82.3365 122.594C81.5461 122.594 80.698 122.478 79.821 122.247C78.9343 122.016 78.1344 121.601 77.4019 120.994C76.6694 120.377 76.0719 119.558 75.59 118.508C75.108 117.467 74.8672 116.127 74.8672 114.489L74.8672 110.585C74.8672 108.927 75.108 107.568 75.59 106.518C76.0719 105.468 76.6694 104.639 77.4019 104.041C78.1344 103.443 78.9343 103.029 79.821 102.807C80.698 102.586 81.5461 102.48 82.3365 102.48C82.8473 102.48 83.3389 102.499 83.7919 102.528C84.2544 102.566 84.6688 102.605 85.0352 102.653C85.411 102.692 85.7194 102.74 85.9796 102.798C86.2399 102.846 86.4133 102.885 86.5193 102.904C86.7024 102.952 86.8374 103.02 86.9434 103.106C87.0494 103.183 87.1073 103.318 87.1073 103.511L87.1073 105.284C87.1073 105.448 87.0687 105.583 86.9916 105.689C86.9049 105.795 86.7699 105.843 86.5771 105.843L86.5193 105.843C86.2976 105.824 86.0182 105.805 85.6904 105.776C85.3628 105.757 85.0159 105.728 84.6399 105.708C84.2737 105.699 83.8882 105.679 83.5027 105.66C83.1172 105.641 82.7413 105.631 82.3846 105.631C81.8257 105.631 81.3053 105.718 80.8427 105.882C80.3704 106.055 79.9656 106.325 79.6379 106.711C79.3005 107.087 79.0306 107.597 78.8379 108.233C78.6451 108.87 78.5488 109.65 78.5488 110.585L78.5488 114.489C78.5488 115.404 78.6451 116.175 78.8379 116.811C79.0306 117.447 79.3005 117.968 79.6379 118.353C79.9656 118.739 80.3704 119.018 80.8427 119.192C81.3053 119.356 81.8257 119.442 82.3846 119.442C82.7413 119.442 83.1172 119.433 83.5027 119.414C83.8882 119.394 84.2737 119.375 84.6399 119.356C85.0159 119.346 85.3628 119.317 85.6904 119.298C86.0182 119.269 86.2976 119.25 86.5193 119.23L86.5771 119.23C86.7699 119.23 86.9049 119.279 86.9916 119.385C87.0687 119.49 87.1073 119.625 87.1073 119.78L87.1073 121.563ZM102.027 121.669C102.027 121.862 101.988 121.996 101.911 122.064C101.824 122.131 101.689 122.189 101.497 122.218C101.285 122.257 101.053 122.295 100.793 122.343C100.533 122.382 100.215 122.42 99.8389 122.459C99.463 122.498 99.0004 122.527 98.4607 122.555C97.9209 122.584 97.256 122.594 96.4561 122.594C95.5983 122.594 94.7887 122.527 94.0465 122.382C93.3044 122.237 92.649 121.968 92.0997 121.572C91.5503 121.177 91.1166 120.618 90.7986 119.915C90.4708 119.211 90.3167 118.295 90.3167 117.158L90.3167 107.916C90.3167 106.778 90.4708 105.863 90.7986 105.159C91.1166 104.446 91.5503 103.896 92.0997 103.501C92.649 103.106 93.3044 102.836 94.0465 102.692C94.7887 102.547 95.5983 102.48 96.4561 102.48C97.256 102.48 97.9209 102.489 98.4607 102.518C99.0004 102.547 99.463 102.576 99.8389 102.615C100.215 102.644 100.533 102.692 100.793 102.73C101.053 102.779 101.285 102.817 101.497 102.846C101.689 102.885 101.824 102.942 101.911 103.01C101.988 103.077 102.027 103.212 102.027 103.405L102.027 105.101C102.027 105.246 101.969 105.371 101.863 105.477C101.757 105.583 101.641 105.631 101.497 105.631L96.0897 105.631C95.3091 105.631 94.7694 105.795 94.4609 106.113C94.1526 106.431 93.9983 107.029 93.9983 107.916L93.9983 110.778L101.179 110.778C101.323 110.778 101.439 110.826 101.545 110.932C101.651 111.038 101.709 111.163 101.709 111.308L101.709 113.216C101.709 113.351 101.651 113.477 101.545 113.583C101.439 113.688 101.323 113.746 101.179 113.746L93.9983 113.746L93.9983 117.158C93.9983 118.045 94.1526 118.642 94.4609 118.96C94.7694 119.279 95.3091 119.442 96.0897 119.442L101.497 119.442C101.641 119.442 101.757 119.49 101.863 119.597C101.969 119.703 102.027 119.828 102.027 119.972L102.027 121.669ZM29.2317 121.669C29.2317 121.862 29.1931 121.996 29.1161 122.064C29.0293 122.131 28.8944 122.189 28.7017 122.218C28.5089 122.276 28.2294 122.324 27.8632 122.363C27.5066 122.411 27.1113 122.449 26.6874 122.488C26.2633 122.527 25.8296 122.546 25.3862 122.565C24.9429 122.584 24.5477 122.594 24.1912 122.594C23.3334 122.594 22.5238 122.527 21.7816 122.382C21.0396 122.237 20.3938 121.968 19.854 121.572C19.3047 121.177 18.871 120.618 18.553 119.915C18.2349 119.211 18.071 118.295 18.071 117.158L18.071 103.222C18.071 103.077 18.1289 102.952 18.2349 102.846C18.3409 102.74 18.4662 102.692 18.6011 102.692L21.2227 102.692C21.3672 102.692 21.4924 102.74 21.5985 102.846C21.7046 102.952 21.7623 103.077 21.7623 103.222L21.7623 117.158C21.7623 118.045 21.907 118.642 22.2057 118.96C22.5045 119.279 23.0442 119.442 23.8248 119.442L28.7017 119.442C28.8462 119.442 28.9619 119.49 29.0679 119.597C29.174 119.703 29.2317 119.828 29.2317 119.972L29.2317 121.669ZM35.4288 121.852C35.4288 121.996 35.3807 122.112 35.2747 122.218C35.1687 122.324 35.0433 122.382 34.8988 122.382L32.2773 122.382C32.1327 122.382 32.0171 122.324 31.911 122.218C31.8051 122.112 31.7472 121.996 31.7472 121.852L31.7472 103.193C31.7472 103.058 31.8051 102.933 31.911 102.836C32.0171 102.74 32.1327 102.692 32.2773 102.692L34.8988 102.692C35.0433 102.692 35.1687 102.74 35.2747 102.836C35.3807 102.933 35.4288 103.058 35.4288 103.193L35.4288 121.852ZM71.4167 121.322C71.4167 121.621 71.3204 121.871 71.118 122.073C70.906 122.276 70.6554 122.382 70.3566 122.382L67.6772 122.382C67.3689 122.382 67.0701 122.343 66.7905 122.257C66.5208 122.179 66.2798 121.9 66.0677 121.428L60.179 108.523C60.1116 108.378 60.0344 108.311 59.9476 108.311C59.8513 108.311 59.8127 108.378 59.8127 108.523L59.8127 121.852C59.8127 121.996 59.7645 122.112 59.6682 122.218C59.5718 122.324 59.4465 122.382 59.3115 122.382L57.0563 122.382C56.9117 122.382 56.7865 122.324 56.6804 122.218C56.5745 122.112 56.5262 121.996 56.5262 121.852L56.5262 103.752C56.5262 103.453 56.6226 103.203 56.8346 103C57.037 102.798 57.2876 102.692 57.5864 102.692L60.4489 102.692C60.7284 102.692 60.9596 102.74 61.1235 102.846C61.2874 102.952 61.4512 103.183 61.615 103.54L67.7833 117.158C67.8411 117.303 67.9086 117.37 67.9954 117.37C68.0917 117.37 68.1302 117.293 68.1302 117.129L68.1302 103.193C68.1302 102.855 68.3037 102.692 68.6313 102.692L70.9156 102.692C71.2529 102.692 71.4167 102.855 71.4167 103.193L71.4167 121.322ZM8.48132 106.007C8.44275 105.843 8.4043 105.737 8.34644 105.67C8.29822 105.612 8.2019 105.583 8.05725 105.583C7.91272 105.583 7.81628 105.612 7.76819 105.67C7.71033 105.737 7.67175 105.843 7.63318 106.007L5.72485 113.872L10.3896 113.872L8.48132 106.007ZM46.4065 106.007C46.3679 105.843 46.3197 105.737 46.2715 105.67C46.2136 105.612 46.1173 105.583 45.9824 105.583C45.8378 105.583 45.7415 105.612 45.6836 105.67C45.6354 105.737 45.5872 105.843 45.5583 106.007L43.65 113.872L48.3147 113.872L46.4065 106.007ZM9.84998 131.229C9.84998 131.972 9.71497 132.598 9.45471 133.099C9.18494 133.61 8.82825 134.015 8.38501 134.333C7.93201 134.641 7.42114 134.853 6.83325 134.988C6.24536 135.114 5.62854 135.181 4.97314 135.181C4.74182 135.181 4.48157 135.171 4.1925 135.152C3.89368 135.143 3.65271 135.123 3.45996 135.114L3.45996 139.528C3.45996 139.615 3.43103 139.692 3.37329 139.759C3.30579 139.826 3.22864 139.865 3.14197 139.865L1.45532 139.865C1.35889 139.865 1.28186 139.826 1.21436 139.759C1.14685 139.692 1.1084 139.615 1.1084 139.528L1.1084 127.895C1.1084 127.731 1.15649 127.606 1.25293 127.538C1.34924 127.461 1.48425 127.413 1.65771 127.394C2.09143 127.326 2.60217 127.268 3.18054 127.23C3.75879 127.191 4.35632 127.172 4.97314 127.172C5.62854 127.172 6.24536 127.23 6.83325 127.355C7.42114 127.48 7.94165 127.692 8.38501 128.001C8.82825 128.3 9.18494 128.704 9.45471 129.206C9.71497 129.707 9.84998 130.333 9.84998 131.075L9.84998 131.229ZM20.8179 139.663C20.8179 139.798 20.7504 139.865 20.6155 139.865L18.553 139.865C18.4662 139.865 18.389 139.826 18.3506 139.759C18.3024 139.692 18.2542 139.615 18.2156 139.528L15.7772 135.027L15.5459 135.027C15.3146 135.027 15.064 135.017 14.7653 135.008C14.4761 134.988 14.2351 134.969 14.0424 134.959L14.0424 139.528C14.0424 139.615 14.0039 139.692 13.946 139.759C13.8882 139.826 13.811 139.865 13.7147 139.865L12.0281 139.865C11.9414 139.865 11.8643 139.826 11.7968 139.759C11.7294 139.692 11.6908 139.615 11.6908 139.528L11.6908 127.895C11.6908 127.731 11.7389 127.606 11.8353 127.538C11.9318 127.461 12.0667 127.413 12.2305 127.394C12.6738 127.326 13.1847 127.268 13.7533 127.23C14.3315 127.191 14.9291 127.172 15.5555 127.172C16.2013 127.172 16.8278 127.24 17.4156 127.365C18.0035 127.5 18.5144 127.712 18.9578 128.001C19.4108 128.29 19.7673 128.685 20.0276 129.177C20.2974 129.668 20.4227 130.266 20.4227 130.989L20.4227 131.143C20.4227 132.049 20.2203 132.771 19.8059 133.34C19.3915 133.899 18.8324 134.323 18.1289 134.593L20.7793 139.528C20.8082 139.557 20.8179 139.605 20.8179 139.663ZM31.6605 134.728C31.6605 135.663 31.5448 136.463 31.3038 137.128C31.0533 137.793 30.7256 138.333 30.3015 138.757C29.8678 139.181 29.3667 139.489 28.7787 139.692C28.1908 139.894 27.5547 140 26.8512 140C26.1572 140 25.5211 139.894 24.9332 139.692C24.3453 139.489 23.8441 139.181 23.4104 138.757C22.9863 138.333 22.6587 137.793 22.4081 137.128C22.1671 136.463 22.0515 135.663 22.0515 134.728L22.0515 132.444C22.0515 131.519 22.1671 130.719 22.4081 130.054C22.6587 129.379 22.9863 128.839 23.4104 128.415C23.8441 127.991 24.3453 127.683 24.9332 127.48C25.5211 127.278 26.1572 127.172 26.8512 127.172C27.5547 127.172 28.1908 127.278 28.7787 127.48C29.3667 127.683 29.8678 127.991 30.3015 128.415C30.7256 128.839 31.0533 129.379 31.3038 130.054C31.5448 130.719 31.6605 131.519 31.6605 132.444L31.6605 134.728ZM42.9657 134.824C42.9657 136.501 42.5127 137.783 41.5875 138.67Q41.5265 138.729 41.4633 138.785Q40.1005 140 37.6553 140C37.3468 140 37.0288 139.99 36.6914 139.981C36.3638 139.971 36.0361 139.952 35.7277 139.933C35.4192 139.904 35.1398 139.884 34.8892 139.865C34.6289 139.836 34.4362 139.817 34.3206 139.798C34.1663 139.769 34.0603 139.72 33.9832 139.643C33.9158 139.566 33.8772 139.441 33.8772 139.268L33.8772 127.895C33.8772 127.731 33.9158 127.606 33.9832 127.529C34.0603 127.451 34.1663 127.394 34.3206 127.374C34.4362 127.355 34.6289 127.326 34.8892 127.307C35.1398 127.288 35.4192 127.259 35.7277 127.24C36.0361 127.22 36.3638 127.201 36.6914 127.191C37.0288 127.182 37.3468 127.172 37.6553 127.172C39.3611 127.172 40.6719 127.615 41.5875 128.502C42.5127 129.379 42.9657 130.661 42.9657 132.347L42.9657 134.824ZM64.2751 139.335C64.2751 139.46 64.2462 139.547 64.1787 139.605C64.1112 139.653 64.0149 139.692 63.8992 139.73C63.8318 139.75 63.7161 139.778 63.5619 139.807C63.3981 139.836 63.1957 139.855 62.9547 139.884C62.7234 139.913 62.4535 139.942 62.1644 139.961C61.8752 139.99 61.5573 140 61.2295 140C60.7284 140 60.1886 139.923 59.6296 139.778C59.061 139.634 58.5502 139.364 58.0875 138.979C57.625 138.583 57.2394 138.063 56.931 137.398Q56.4684 136.4 56.4684 134.824L56.4684 132.347C56.4684 131.287 56.6226 130.42 56.931 129.745C57.2394 129.08 57.625 128.55 58.0875 128.165C58.5502 127.789 59.061 127.529 59.6296 127.384C60.1886 127.24 60.7284 127.172 61.2295 127.172C61.5573 127.172 61.8752 127.182 62.1644 127.21C62.4535 127.23 62.7234 127.259 62.9547 127.278C63.1957 127.307 63.3981 127.345 63.5619 127.374C63.7161 127.413 63.8318 127.432 63.8992 127.442C64.0149 127.48 64.1112 127.519 64.1787 127.567C64.2462 127.615 64.2751 127.712 64.2751 127.827L64.2751 128.965C64.2751 129.061 64.2462 129.148 64.198 129.215C64.1498 129.283 64.0631 129.321 63.9377 129.321L63.8992 129.321C63.7546 129.312 63.5812 129.292 63.3691 129.273C63.1667 129.263 62.9451 129.244 62.7041 129.234C62.4631 129.225 62.2222 129.215 61.9813 129.196C61.7307 129.186 61.4897 129.186 61.2681 129.186C60.9115 129.186 60.5741 129.234 60.2754 129.341C59.9766 129.447 59.726 129.63 59.5139 129.871C59.2922 130.112 59.1284 130.43 59.0032 130.834C58.8779 131.249 58.8201 131.75 58.8201 132.347L58.8201 134.824C58.8201 135.412 58.8779 135.904 59.0032 136.318C59.1284 136.723 59.2922 137.051 59.5139 137.292C59.726 137.542 59.9766 137.716 60.2754 137.822C60.5741 137.938 60.9115 137.986 61.2681 137.986C61.4897 137.986 61.7307 137.976 61.9813 137.966L62.7041 137.938C62.9451 137.928 63.1667 137.909 63.3691 137.889C63.5812 137.88 63.7546 137.86 63.8992 137.851L63.9377 137.851C64.0631 137.851 64.1498 137.889 64.198 137.957C64.2462 138.024 64.2751 138.101 64.2751 138.207L64.2751 139.335ZM90.2588 134.728C90.2588 135.663 90.1432 136.463 89.9022 137.128C89.6613 137.793 89.324 138.333 88.8999 138.757C88.4662 139.181 87.965 139.489 87.3771 139.692C86.7892 139.894 86.1531 140 85.4592 140C84.7556 140 84.1195 139.894 83.5316 139.692C82.9534 139.489 82.4425 139.181 82.0184 138.757C81.5847 138.333 81.2571 137.793 81.0161 137.128C80.7751 136.463 80.6499 135.663 80.6499 134.728L80.6499 132.444C80.6499 131.519 80.7751 130.719 81.0161 130.054C81.2571 129.379 81.5847 128.839 82.0184 128.415C82.4425 127.991 82.9534 127.683 83.5316 127.48C84.1195 127.278 84.7556 127.172 85.4592 127.172C86.1531 127.172 86.7892 127.278 87.3771 127.48C87.965 127.683 88.4662 127.991 88.8999 128.415C89.324 128.839 89.6613 129.379 89.9022 130.054C90.1432 130.719 90.2588 131.519 90.2588 132.444L90.2588 134.728ZM54.3577 135.22C54.3577 136.116 54.2421 136.868 54.0107 137.475C53.7794 138.092 53.4614 138.573 53.047 138.949C52.6326 139.325 52.141 139.585 51.5724 139.75C51.0037 139.913 50.3868 140 49.7123 140C49.0376 140 48.4111 139.913 47.8425 139.75C47.2738 139.585 46.7823 139.325 46.3679 138.949C45.9631 138.573 45.645 138.092 45.4137 137.475C45.1824 136.868 45.0668 136.116 45.0668 135.22L45.0668 127.625C45.0668 127.538 45.0957 127.461 45.1632 127.403C45.2306 127.336 45.3077 127.307 45.4041 127.307L47.0714 127.307C47.1678 127.307 47.245 127.336 47.3124 127.403C47.3799 127.461 47.4088 127.538 47.4088 127.625L47.4088 135.229C47.4088 135.711 47.4474 136.135 47.5148 136.492C47.5823 136.839 47.6979 137.137 47.881 137.378C48.0546 137.619 48.2859 137.793 48.575 137.899C48.8738 138.015 49.2496 138.073 49.7123 138.073C50.1555 138.073 50.5315 138.015 50.8302 137.899C51.129 137.793 51.37 137.619 51.5435 137.378C51.7169 137.137 51.8422 136.839 51.9097 136.492C51.9772 136.135 52.0061 135.711 52.0061 135.229L52.0061 127.625C52.0061 127.538 52.0446 127.461 52.1121 127.403C52.1796 127.336 52.2566 127.307 52.3434 127.307L54.0204 127.307C54.1072 127.307 54.1842 127.336 54.2517 127.403C54.3191 127.461 54.3577 127.538 54.3577 127.625L54.3577 135.22ZM74.4142 128.965C74.4142 129.051 74.3756 129.128 74.3081 129.186C74.2407 129.244 74.1636 129.263 74.0768 129.263L71.118 129.263L71.118 139.528C71.118 139.615 71.0891 139.692 71.0216 139.759C70.9541 139.826 70.8674 139.865 70.7806 139.865L69.1036 139.865C69.017 139.865 68.9398 139.826 68.8723 139.759C68.8049 139.692 68.7664 139.615 68.7664 139.528L68.7664 129.263L65.8171 129.263C65.7208 129.263 65.6437 129.244 65.5762 129.186C65.5088 129.128 65.4799 129.051 65.4799 128.965L65.4799 127.625C65.4799 127.538 65.5088 127.461 65.5762 127.403C65.6437 127.336 65.7208 127.307 65.8171 127.307L74.0768 127.307C74.1636 127.307 74.2407 127.336 74.3081 127.403C74.3756 127.461 74.4142 127.538 74.4142 127.625L74.4142 128.965ZM78.4524 139.528C78.4524 139.615 78.4138 139.692 78.3464 139.759C78.2789 139.826 78.2018 139.865 78.1151 139.865L76.4381 139.865C76.3513 139.865 76.2743 139.826 76.2068 139.759C76.1393 139.692 76.1008 139.615 76.1008 139.528L76.1008 127.625C76.1008 127.538 76.1393 127.461 76.2068 127.403C76.2743 127.336 76.3513 127.307 76.4381 127.307L78.1151 127.307C78.2018 127.307 78.2789 127.336 78.3464 127.403C78.4138 127.461 78.4524 127.538 78.4524 127.625L78.4524 139.528ZM101.969 139.19C101.969 139.374 101.911 139.537 101.776 139.672C101.651 139.798 101.487 139.865 101.294 139.865L99.5883 139.865C99.3859 139.865 99.2028 139.836 99.0293 139.788C98.8462 139.74 98.692 139.557 98.5571 139.258L94.8079 131.027C94.7598 130.931 94.7115 130.892 94.6537 130.892C94.5959 130.892 94.5767 130.931 94.5767 131.027L94.5767 139.528C94.5767 139.615 94.5381 139.692 94.4802 139.759C94.4127 139.826 94.3453 139.865 94.2489 139.865L92.8129 139.865C92.7261 139.865 92.649 139.826 92.5815 139.759C92.5142 139.692 92.4756 139.615 92.4756 139.528L92.4756 127.981C92.4756 127.789 92.543 127.635 92.6683 127.5C92.8032 127.374 92.9574 127.307 93.1501 127.307L94.9814 127.307C95.1549 127.307 95.2994 127.345 95.4055 127.413C95.5115 127.48 95.6176 127.625 95.7235 127.847L99.6558 136.53C99.6943 136.627 99.7329 136.665 99.7908 136.665C99.8485 136.665 99.8774 136.617 99.8774 136.521L99.8774 127.625C99.8774 127.413 99.9835 127.307 100.196 127.307L101.651 127.307C101.863 127.307 101.969 127.413 101.969 127.625L101.969 139.19ZM7.49829 131.066C7.49829 130.353 7.28625 129.851 6.86218 129.552C6.44775 129.244 5.81165 129.1 4.9635 129.1C4.87683 129.1 4.76111 129.1 4.61658 129.109C4.48157 129.109 4.33704 129.119 4.1925 129.128C4.03833 129.128 3.90332 129.138 3.77808 129.138C3.64307 129.148 3.53711 129.157 3.45996 129.167L3.45996 133.205C3.52747 133.205 3.63354 133.205 3.77808 133.215C3.91296 133.215 4.0575 133.225 4.21179 133.234C4.36597 133.234 4.5105 133.244 4.65515 133.244C4.79004 133.253 4.896 133.253 4.9635 133.253C5.87915 133.253 6.5249 133.09 6.92004 132.743C7.30554 132.405 7.49829 131.895 7.49829 131.22L7.49829 131.066ZM40.6237 132.347C40.6237 131.721 40.5466 131.191 40.3925 130.786C40.2382 130.372 40.0261 130.044 39.766 129.803C39.4961 129.562 39.1876 129.389 38.8214 129.292C38.4552 129.196 38.0601 129.148 37.6456 129.148C37.3275 129.148 37.0577 129.157 36.8361 129.167C36.6047 129.177 36.4023 129.186 36.2289 129.196L36.2289 137.986C36.4023 137.995 36.6047 138.005 36.8361 138.024C37.0577 138.034 37.3275 138.034 37.6456 138.034C38.0601 138.034 38.4552 137.986 38.8214 137.889C39.1876 137.802 39.4961 137.629 39.766 137.388C40.0261 137.137 40.2382 136.82 40.3925 136.405C40.5466 135.991 40.6237 135.47 40.6237 134.834L40.6237 132.347ZM18.0807 130.989C18.0807 130.353 17.8687 129.89 17.4446 129.61C17.0205 129.321 16.3844 129.186 15.5459 129.186C15.4496 129.186 15.3339 129.186 15.199 129.196C15.0544 129.196 14.9098 129.206 14.7653 129.206C14.6207 129.215 14.4857 129.215 14.3508 129.225C14.2256 129.234 14.1195 129.244 14.0424 129.254L14.0424 133.051C14.1099 133.051 14.2159 133.051 14.3508 133.061C14.4954 133.07 14.6399 133.07 14.7942 133.08C14.9484 133.08 15.0929 133.09 15.2279 133.099L15.5459 133.099C16.423 133.099 17.0687 132.964 17.4735 132.685C17.8783 132.396 18.0807 131.885 18.0807 131.143L18.0807 130.989ZM29.3185 132.444C29.3185 131.316 29.1161 130.497 28.7113 129.986C28.3162 129.475 27.6897 129.215 26.8512 129.215C26.0223 129.215 25.3959 129.475 25.0007 129.986C24.5959 130.497 24.3936 131.316 24.3936 132.444L24.3936 134.728C24.3936 135.856 24.5959 136.675 25.0007 137.186C25.3959 137.697 26.0223 137.957 26.8512 137.957C27.6897 137.957 28.3162 137.697 28.7113 137.186C29.1161 136.675 29.3185 135.856 29.3185 134.728L29.3185 132.444ZM87.9169 132.444C87.9169 131.316 87.7145 130.497 87.3097 129.986C86.9146 129.475 86.2881 129.215 85.4592 129.215C84.6206 129.215 84.0039 129.475 83.599 129.986C83.1942 130.497 83.0015 131.316 83.0015 132.444L83.0015 134.728C83.0015 135.856 83.1942 136.675 83.599 137.186C84.0039 137.697 84.6206 137.957 85.4592 137.957C86.2881 137.957 86.9146 137.697 87.3097 137.186C87.7145 136.675 87.9169 135.856 87.9169 134.728L87.9169 132.444Z" ></path>
  </symbol>
</svg>