<svg width="19.549255" height="12.000000" viewBox="0 0 19.5493 12" fill="none" xmlns="http://www.w3.org/2000/svg" xmlns:xlink="http://www.w3.org/1999/xlink">
	<desc>
			Created with Pixso.
	</desc>
	<defs/>
	<path id="Vector" d="M19.4439 10.7568C18.6455 9.31982 16.5889 7.59326 15.7398 6.84229C15.5074 6.63623 15.4825 6.28076 15.694 6.05322C17.3144 4.31201 18.6104 2.31104 19.0565 1.10254C19.2533 0.568359 18.8459 0.00390625 18.2719 0.00390625L16.6044 0.00390625C16.0548 0.00390625 15.7332 0.201172 15.5799 0.515625C14.2332 3.2749 13.078 4.46924 12.2694 5.16699C11.8167 5.55811 11.1107 5.23438 11.1107 4.63916C11.1107 3.49316 11.1107 2.01123 11.1107 0.960449C11.1107 0.451172 10.6939 0.0385742 10.1799 0.0385742L7.13379 0.00390625C6.75037 0.00390625 6.53131 0.437988 6.76147 0.742188L7.2644 1.46436C7.45367 1.71436 7.55585 2.01904 7.55585 2.33105L7.55322 5.58252C7.55322 6.14795 6.86768 6.42432 6.46069 6.02832C5.0838 4.6875 3.8891 1.94922 3.45898 0.639648C3.33459 0.260742 2.97961 0.00488281 2.57709 0.00390625L0.934509 0C0.318298 0 -0.132263 0.584473 0.0352783 1.17236C1.53607 6.44043 4.61554 11.4521 10.1035 11.9956C10.6442 12.0488 11.1107 11.6133 11.1107 11.0747L11.1107 9.36572C11.1107 8.87549 11.495 8.45459 11.9891 8.44189C12.0064 8.44141 12.0237 8.44141 12.041 8.44141C13.4926 8.44141 15.1182 10.5542 15.687 11.5425C15.8505 11.8267 16.1561 12 16.4867 12L18.6962 12C19.3408 12 19.7545 11.3164 19.4439 10.7568Z" fill="#5C8EE6" fill-opacity="1.000000" fill-rule="nonzero"/>
</svg>
