<svg width="360.000000" height="310.000000" viewBox="0 0 360 310" fill="none" xmlns="http://www.w3.org/2000/svg" xmlns:xlink="http://www.w3.org/1999/xlink">
	<desc>
			Created with Pixso.
	</desc>
	<defs>
		<clipPath id="clip134_1006">
			<rect id="thanks_illu" width="360.000000" height="310.000000" fill="white" fill-opacity="0"/>
		</clipPath>
	</defs>
	<rect id="thanks_illu" width="360.000000" height="310.000000" fill="#FFFFFF" fill-opacity="0"/>
	<g clip-path="url(#clip134_1006)">
		<path id="Vector" d="M231.446 302.615C232.253 303.047 233.175 303.22 234.084 303.111C234.994 303.002 235.848 302.615 236.53 302.004C237.213 301.392 237.691 300.586 237.901 299.693C238.11 298.801 238.04 297.866 237.701 297.014C237.792 296.561 237.857 296.236 237.948 295.783C239.696 294.15 241.891 293.077 244.252 292.701C246.613 292.325 249.033 292.663 251.201 293.673C253.369 294.682 255.186 296.316 256.42 298.365C257.654 300.415 258.248 302.786 258.126 305.176C257.573 318.652 258.238 333.194 249.288 344.058C290.138 310.652 308.765 253.743 296.29 202.558C290.168 194.022 287.312 182.682 290.058 172.406C293.502 175.759 300.217 174.858 299.191 169.054C298.641 166.76 298.071 164.473 297.521 162.179C321.049 152.991 327.192 188.001 299.321 202.256C301.583 211.987 302.821 221.928 303.016 231.917C306.163 222.91 311.4 214.78 318.299 208.194C324.979 202.175 333.811 198.636 342.028 194.599C352.026 189.672 363.123 199.439 359.186 209.865C352.53 209.013 347.821 216.974 353.86 221.253C343.252 239.082 322.912 250.414 302.245 250.594C300.155 270.938 293.756 290.603 283.475 308.277C296.677 288.187 322.227 293.971 342.418 293.115C343.758 292.946 345.118 293.171 346.332 293.762C347.546 294.353 348.562 295.286 349.256 296.445C349.95 297.604 350.292 298.94 350.24 300.29C350.188 301.641 349.744 302.947 348.963 304.049C346.307 303.893 343.642 304.001 341.007 304.373C339.768 304.557 338.615 305.119 337.708 305.984C336.801 306.849 336.184 307.973 335.94 309.203C335.697 310.433 335.839 311.708 336.348 312.854C336.857 313.999 337.708 314.959 338.783 315.602C321.071 331.852 293.625 335.345 272.083 324.976C265.714 333.004 258.529 340.348 250.644 346.89L218.618 331.613C218.673 331.202 218.745 330.785 218.811 330.38C221.687 331.98 224.747 333.222 227.924 334.078C224.508 321.045 220.701 313.411 231.444 302.615L231.446 302.615Z" fill="#F2F2F2" fill-opacity="1.000000" fill-rule="nonzero"/>
		<path id="Vector" d="M174.857 271.783C174.271 272.488 173.483 272.996 172.6 273.238C171.716 273.48 170.78 273.445 169.917 273.136C169.055 272.828 168.308 272.261 167.777 271.514C167.247 270.766 166.959 269.874 166.953 268.957C166.698 268.572 166.515 268.295 166.259 267.91C164.025 267.058 161.588 266.893 159.259 267.436C156.931 267.979 154.817 269.205 153.19 270.958C151.563 272.711 150.496 274.91 150.125 277.274C149.755 279.638 150.099 282.059 151.112 284.226C156.704 296.498 161.569 310.216 173.954 316.899C123.529 301.381 84.8281 255.707 77.0889 203.594C79.5405 193.378 77.9111 181.798 71.4956 173.317C69.5688 177.723 63.0103 179.423 61.7729 173.661C61.418 171.328 61.0835 168.995 60.7285 166.663C35.4751 167.035 42.9819 201.779 74.167 204.459C75.7407 214.325 78.3413 223.999 81.9253 233.324C75.6162 226.17 67.7007 220.617 58.8291 217.122C50.3745 214.07 40.8608 214.126 31.729 213.488C20.6123 212.7 14.0166 225.934 21.5928 234.104C27.4355 230.802 34.7979 236.398 30.8169 242.64C47.3618 255.148 70.4717 257.965 89.6792 250.33C99.2832 268.382 112.622 284.179 128.805 296.667C109.006 283.044 87.5234 298.046 68.501 304.875C67.1963 305.224 66.022 305.946 65.1201 306.952C64.2183 307.958 63.6289 309.204 63.4229 310.54C63.2173 311.875 63.4043 313.242 63.9614 314.473C64.5186 315.704 65.4219 316.746 66.5605 317.472C68.9619 316.325 71.4707 315.419 74.0513 314.768C75.2681 314.471 76.5474 314.557 77.7134 315.016C78.8794 315.474 79.875 316.282 80.5645 317.329C81.2534 318.376 81.6021 319.611 81.5625 320.864C81.5225 322.117 81.0967 323.327 80.3428 324.329C102.872 332.692 129.607 325.567 145.649 307.832C154.573 312.863 163.996 316.952 173.765 320.034L197.667 293.796C197.461 293.437 197.237 293.078 197.023 292.727C194.963 295.295 192.597 297.601 189.977 299.593C188.229 286.232 188.877 277.725 174.858 271.783L174.857 271.783Z" fill="#F2F2F2" fill-opacity="1.000000" fill-rule="nonzero"/>
		<path id="Vector" d="M181.007 160.916C181.919 160.823 182.78 160.453 183.474 159.855C184.168 159.256 184.662 158.459 184.888 157.571C185.114 156.682 185.062 155.746 184.738 154.888C184.415 154.031 183.836 153.293 183.08 152.776C182.903 152.349 182.776 152.042 182.599 151.616C183.14 149.285 184.365 147.169 186.115 145.54C187.866 143.91 190.063 142.841 192.425 142.469C194.787 142.097 197.206 142.44 199.372 143.453C201.538 144.466 203.353 146.103 204.583 148.154C211.632 159.65 220.286 171.351 218.908 185.364C234.208 134.839 217.964 77.2031 179.091 41.6732C169.254 38.0025 160.565 30.1821 157.119 20.1198C161.847 20.981 166.919 16.4865 162.834 12.2406C161.099 10.6436 159.352 9.06287 157.617 7.4657C172.03 -13.2898 196.635 12.3464 181.44 39.7308C188.739 46.5475 195.305 54.109 201.033 62.2922C198.626 53.0596 198.445 43.3873 200.503 34.0709C202.695 25.3478 208.055 17.4819 212.626 9.54529C218.182 -0.123047 232.835 1.79321 235.376 12.645C229.375 15.6512 229.902 24.8882 237.299 25.0697C238.426 45.7896 227.854 66.5465 210.798 78.2272C220.397 96.2817 226.041 116.177 227.354 136.586C227.12 112.541 251.553 103.087 267.838 91.1105C268.856 90.2227 270.11 89.6506 271.447 89.4639C272.785 89.2772 274.147 89.484 275.369 90.0591C276.591 90.6343 277.62 91.5528 278.329 92.7028C279.038 93.8527 279.397 95.1843 279.363 96.5352C277.071 97.8878 274.919 99.4649 272.938 101.243C272.012 102.087 271.369 103.197 271.098 104.421C270.827 105.645 270.94 106.923 271.423 108.08C271.906 109.237 272.735 110.216 273.796 110.883C274.857 111.55 276.098 111.872 277.349 111.806C271.698 135.179 250.86 153.392 227.201 156.804C226.387 167.022 224.514 177.127 221.612 186.958L186.515 192.145C186.331 191.773 186.159 191.387 185.988 191.014C189.267 190.738 192.499 190.061 195.614 188.999C185.516 180.086 178.103 175.872 181.007 160.916L181.007 160.916Z" fill="#F2F2F2" fill-opacity="1.000000" fill-rule="nonzero"/>
		<path id="Vector" d="M216.307 149.654C200.328 149.654 191.662 147.7 188.635 143.529C185.964 139.849 187.754 134.993 189.828 129.371C191.318 125.329 193.007 120.749 193.007 116.216C193.007 94.1682 204.178 82.9886 226.209 82.9886C237.171 82.9886 248.941 88.816 257.694 98.5771C265.651 107.451 269.615 118.071 268.57 127.715C267.712 135.624 264.034 140.825 256.993 144.084L256.581 144.275L256.464 143.836C255.856 141.566 254.827 139.431 253.431 137.541C253.295 140.507 252.548 143.413 251.236 146.076L251.162 146.228L250.999 146.275C243.03 148.546 233.573 149.161 226.224 149.443C222.647 149.583 219.341 149.653 216.307 149.654Z" fill="#2F2E41" fill-opacity="1.000000" fill-rule="nonzero"/>
		<path id="Vector" d="M220.662 180.373C220.05 178.572 219.017 176.942 217.649 175.62C216.282 174.298 214.619 173.322 212.798 172.772C210.978 172.222 209.053 172.114 207.183 172.458C205.312 172.801 203.551 173.586 202.044 174.747L149.487 206.193L133.041 166.035C134.43 163.995 135.138 161.568 135.064 159.101C134.989 156.633 134.136 154.253 132.626 152.301C131.116 150.349 129.027 148.926 126.659 148.236C124.291 147.545 121.765 147.623 119.444 148.458C117.123 149.293 115.125 150.842 113.738 152.884C112.351 154.925 111.646 157.353 111.723 159.82C111.8 162.288 112.657 164.667 114.169 166.617C115.681 168.567 117.771 169.988 120.14 170.676C121.154 182.256 126.787 234.015 146.385 232.134C162.857 230.552 203.765 203.288 216.471 193.835C218.504 192.324 220.005 190.207 220.758 187.788C221.511 185.368 221.478 182.772 220.662 180.373Z" fill="#FFB6B6" fill-opacity="1.000000" fill-rule="nonzero"/>
		<path id="Vector" d="M260.268 408.771L214.524 408.771L206.853 370.816L204.365 408.771L161.873 408.771C161.889 378.964 163.44 349.178 166.521 319.531L167.048 317.736L167.879 314.864L168.406 313.061L177.199 282.843L177.894 280.444L230.843 280.444C233.89 283.309 236.701 286.415 239.247 289.733C240.109 290.833 241.01 292.024 241.934 293.308C242.575 294.217 243.239 295.171 243.903 296.172C249.803 304.962 254.213 314.666 256.955 324.893L256.955 324.901C257.421 326.65 257.833 328.44 258.192 330.27L258.192 330.278C258.512 331.905 258.795 333.555 259.016 335.243C259.184 336.473 259.329 337.718 259.436 338.978C260.072 345.961 259.849 352.995 258.772 359.923L260.268 408.771Z" fill="#2F2E41" fill-opacity="1.000000" fill-rule="nonzero"/>
		<path id="Vector" d="M21.665 55.8804C22.4648 57.9485 20.7051 60.558 17.7344 61.7088C14.7637 62.8596 11.707 62.116 10.9067 60.0479C10.1069 57.9797 11.8667 55.3703 14.8374 54.2195C17.8081 53.0687 20.8647 53.8123 21.665 55.8804Z" fill="#E6E6E6" fill-opacity="1.000000" fill-rule="evenodd"/>
		<path id="Vector" d="M59.0684 51.0787C59.8682 53.1468 58.1084 55.7562 55.1377 56.907C52.167 58.0579 49.1104 57.3142 48.3101 55.2461C47.5103 53.178 49.27 50.5685 52.2407 49.4177C55.2114 48.2669 58.2681 49.0106 59.0684 51.0787Z" fill="#3F3D56" fill-opacity="1.000000" fill-rule="evenodd"/>
		<path id="Vector" d="M18.4204 87.8157C19.2202 89.8839 17.4604 92.4933 14.4897 93.6441C11.519 94.7949 8.4624 94.0513 7.66211 91.9832C6.8623 89.915 8.62207 87.3056 11.5928 86.1548C14.5635 85.004 17.6201 85.7476 18.4204 87.8157Z" fill="#FF6584" fill-opacity="1.000000" fill-rule="evenodd"/>
		<path id="Vector" d="M5.29785 103.596C5.76172 105.557 5.03271 107.408 3.66992 107.731C2.30713 108.054 0.826172 106.726 0.362793 104.765C-0.101074 102.805 0.62793 100.954 1.99072 100.631C3.35352 100.308 4.83447 101.636 5.29785 103.596Z" fill="#E6E6E6" fill-opacity="1.000000" fill-rule="evenodd"/>
		<path id="Vector" d="M5.07471 127.446C5.53857 129.406 4.80957 131.258 3.44678 131.58C2.08398 131.903 0.603027 130.575 0.139648 128.615C-0.324219 126.654 0.404785 124.803 1.76758 124.48C3.13037 124.158 4.61133 125.485 5.07471 127.446Z" fill="#3F3D56" fill-opacity="1.000000" fill-rule="evenodd"/>
		<path id="Vector" d="M37.9033 78.0482C38.3672 80.0087 37.6382 81.8597 36.2754 82.1826C34.9126 82.5054 33.4316 81.1777 32.9683 79.2172C32.5044 77.2566 33.2334 75.4055 34.5962 75.0827C35.959 74.7599 37.4395 76.0875 37.9033 78.0482Z" fill="#E6E6E6" fill-opacity="1.000000" fill-rule="evenodd"/>
		<path id="Vector" d="M18.2036 73.2607C18.6675 75.2213 17.9385 77.0723 16.5757 77.3951C15.2129 77.718 13.7319 76.3903 13.2686 74.4297C12.8047 72.4691 13.5337 70.618 14.8965 70.2952C16.2593 69.9724 17.7402 71.3001 18.2036 73.2607Z" fill="#FF6584" fill-opacity="1.000000" fill-rule="evenodd"/>
		<path id="Vector" d="M39.0835 51.2994C39.5474 53.2599 38.8184 55.111 37.4556 55.4338C36.0928 55.7566 34.6118 54.429 34.1484 52.4684C33.6846 50.5078 34.4136 48.6567 35.7764 48.3339C37.1392 48.0111 38.6196 49.3388 39.0835 51.2994Z" fill="#3F3D56" fill-opacity="1.000000" fill-rule="evenodd"/>
		<path id="Vector" d="M45.375 213.701C47.8008 215.768 48.6025 218.812 47.1665 220.5C45.73 222.189 42.5991 221.883 40.1733 219.817C37.7476 217.75 36.9458 214.706 38.3818 213.018C39.8184 211.329 42.9492 211.635 45.375 213.701Z" fill="#E6E6E6" fill-opacity="1.000000" fill-rule="evenodd"/>
		<path id="Vector" d="M23.3462 183.072C25.772 185.138 26.5737 188.182 25.1377 189.871C23.7012 191.559 20.5703 191.253 18.1445 189.187C15.7188 187.121 14.917 184.077 16.353 182.388C17.7896 180.699 20.9204 181.005 23.3462 183.072Z" fill="#3F3D56" fill-opacity="1.000000" fill-rule="evenodd"/>
		<path id="Vector" d="M74.9819 201.35C77.4077 203.416 78.21 206.46 76.7734 208.149C75.3369 209.838 72.2061 209.532 69.7803 207.465C67.3545 205.399 66.5527 202.355 67.9888 200.666C69.4253 198.978 72.5562 199.284 74.9819 201.35Z" fill="#FF6584" fill-opacity="1.000000" fill-rule="evenodd"/>
		<path id="Vector" d="M92.5122 204.165C93.4448 205.211 92.9829 207.146 91.481 208.487C89.979 209.829 88.0054 210.069 87.0728 209.023C86.1401 207.978 86.6021 206.042 88.104 204.701C89.606 203.359 91.5796 203.119 92.5122 204.165Z" fill="#E6E6E6" fill-opacity="1.000000" fill-rule="evenodd"/>
		<path id="Vector" d="M113.575 193.005C114.508 194.051 114.046 195.986 112.544 197.327C111.042 198.669 109.068 198.909 108.136 197.863C107.203 196.818 107.665 194.882 109.167 193.541C110.669 192.199 112.643 191.959 113.575 193.005Z" fill="#3F3D56" fill-opacity="1.000000" fill-rule="evenodd"/>
		<path id="Vector" d="M54.5376 187.636C55.4702 188.682 55.0083 190.617 53.5063 191.959C52.0044 193.3 50.0308 193.54 49.0981 192.495C48.1655 191.449 48.6274 189.514 50.1294 188.172C51.6313 186.83 53.605 186.591 54.5376 187.636Z" fill="#E6E6E6" fill-opacity="1.000000" fill-rule="evenodd"/>
		<path id="Vector" d="M59.7109 207.252C60.6436 208.297 60.1816 210.232 58.6797 211.574C57.1777 212.916 55.2041 213.156 54.2715 212.11C53.3389 211.064 53.8008 209.129 55.3027 207.788C56.8047 206.446 58.7783 206.206 59.7109 207.252Z" fill="#FF6584" fill-opacity="1.000000" fill-rule="evenodd"/>
		<path id="Vector" d="M30.4712 199.334C31.4038 200.379 30.9419 202.315 29.4399 203.656C27.938 204.998 25.9644 205.238 25.0317 204.192C24.0991 203.146 24.561 201.211 26.063 199.87C27.5649 198.528 29.5386 198.288 30.4712 199.334Z" fill="#3F3D56" fill-opacity="1.000000" fill-rule="evenodd"/>
		<path id="Vector" d="M196.213 17.1008C197.619 19.9614 197.146 23.0739 195.158 24.0526C193.169 25.0312 190.417 23.5056 189.012 20.645C187.606 17.7843 188.078 14.672 190.067 13.6932C192.055 12.7146 194.807 14.2402 196.213 17.1008Z" fill="#E6E6E6" fill-opacity="1.000000" fill-rule="evenodd"/>
		<path id="Vector" d="M204.27 53.9677C205.675 56.8283 205.203 59.9407 203.214 60.9194C201.226 61.8981 198.474 60.3724 197.068 57.5118C195.663 54.6512 196.135 51.5388 198.124 50.5601C200.112 49.5814 202.864 51.107 204.27 53.9677Z" fill="#3F3D56" fill-opacity="1.000000" fill-rule="evenodd"/>
		<path id="Vector" d="M164.14 16.6652C165.545 19.5259 165.073 22.6382 163.084 23.6169C161.096 24.5956 158.344 23.07 156.938 20.2094C155.533 17.3486 156.005 14.2363 157.994 13.2576C159.982 12.2789 162.734 13.8046 164.14 16.6652Z" fill="#FF6584" fill-opacity="1.000000" fill-rule="evenodd"/>
		<path id="Vector" d="M148.888 8.36047C149.329 9.69092 148.137 11.2833 146.226 11.9174C144.315 12.5514 142.409 11.9869 141.968 10.6566C141.527 9.32629 142.719 7.73376 144.63 7.09973C146.541 6.4657 148.447 7.03015 148.888 8.36047Z" fill="#E6E6E6" fill-opacity="1.000000" fill-rule="evenodd"/>
		<path id="Vector" d="M125.128 10.2283C125.569 11.5587 124.377 13.1511 122.466 13.7852C120.555 14.4192 118.649 13.8547 118.208 12.5244C117.768 11.1941 118.959 9.60156 120.87 8.96753C122.781 8.3335 124.688 8.89795 125.128 10.2283Z" fill="#3F3D56" fill-opacity="1.000000" fill-rule="evenodd"/>
		<path id="Vector" d="M177.177 38.6264C177.618 39.9567 176.426 41.5492 174.515 42.1832C172.604 42.8173 170.697 42.2528 170.256 40.9225C169.816 39.5922 171.008 37.9997 172.918 37.3656C174.83 36.7316 176.736 37.296 177.177 38.6264Z" fill="#E6E6E6" fill-opacity="1.000000" fill-rule="evenodd"/>
		<path id="Vector" d="M180.215 18.5685C180.656 19.8988 179.464 21.4913 177.553 22.1254C175.642 22.7594 173.736 22.1949 173.295 20.8646C172.854 19.5343 174.046 17.9418 175.957 17.3077C177.868 16.6737 179.774 17.2382 180.215 18.5685Z" fill="#FF6584" fill-opacity="1.000000" fill-rule="evenodd"/>
		<path id="Vector" d="M203.906 37.4595C204.347 38.7899 203.155 40.3823 201.244 41.0164C199.333 41.6504 197.426 41.0859 196.985 39.7556C196.545 38.4252 197.737 36.8328 199.647 36.1987C201.559 35.5647 203.465 36.1292 203.906 37.4595Z" fill="#3F3D56" fill-opacity="1.000000" fill-rule="evenodd"/>
		<path id="Vector" d="M208.579 155.792L233.779 154.493L245.484 173.002C245.484 173.002 267.508 176.686 265.981 202.657C264.455 228.628 239.186 251.418 239.186 251.418L240.266 264.943L238.39 270.307L238.63 273.319L241.189 276.509L241.453 279.808L239.186 285.027L242.269 290.025L177.44 283.74L175.069 275.097L178.527 270.457L176.596 264.403L179.5 258.581L181.014 240.088C181.014 240.088 164.448 215.18 183.465 196.421L191.098 183.435L199.639 173.008L208.579 155.792Z" fill="#5C8EE5" fill-opacity="1.000000" fill-rule="nonzero"/>
		<path id="Vector" d="M247.811 123.843C247.811 138.601 235.855 150.565 221.107 150.565C206.36 150.565 194.404 138.601 194.404 123.843C194.404 109.084 206.36 97.1198 221.107 97.1198C235.855 97.1198 247.811 109.084 247.811 123.843Z" fill="#FFB6B6" fill-opacity="1.000000" fill-rule="evenodd"/>
		<path id="Vector" d="M217.532 122.223C215.231 122.223 212.931 122.158 210.632 122.028L210.222 122.005L210.276 121.597C210.614 119.046 210.424 116.453 209.716 113.979C208.514 116.796 206.726 119.324 204.47 121.394L204.342 121.511L204.171 121.492C197.928 120.809 191.743 119.68 185.661 118.114L185.428 118.054L185.381 117.818C184.927 115.586 184.692 113.315 184.679 111.037C184.679 103.921 187.257 97.9318 191.938 94.1726C197.034 90.0807 204.338 88.8223 212.512 90.6271L238.651 90.6271C241.525 90.6304 244.28 91.7742 246.312 93.8077C248.344 95.8411 249.487 98.5982 249.49 101.474L249.49 118.039L249.205 118.113C238.866 120.833 228.222 122.214 217.532 122.223Z" fill="#2F2E41" fill-opacity="1.000000" fill-rule="nonzero"/>
		<path id="Vector" d="M35.3257 92.4984C34.1553 92.9266 33.2026 93.8019 32.6768 94.9322C32.1509 96.0624 32.0942 97.3554 32.5195 98.5273L60.7178 175.958C61.1455 177.129 62.0205 178.083 63.1499 178.609C64.2793 179.135 65.5713 179.192 66.7422 178.767L176.185 138.851C177.355 138.423 178.308 137.548 178.833 136.418C179.359 135.287 179.416 133.994 178.991 132.822L150.792 55.3915C150.364 54.2206 149.49 53.2672 148.36 52.7407C147.231 52.2142 145.939 52.1576 144.768 52.5832L35.3257 92.4984Z" fill="#CCCCCC" fill-opacity="1.000000" fill-rule="nonzero"/>
		<path id="Vector" d="M135.452 149.438L68.4619 173.87C67.2017 174.328 65.811 174.267 64.5952 173.701C63.3799 173.134 62.4385 172.108 61.978 170.848L36.4023 100.619C35.9443 99.3573 36.0054 97.9658 36.5718 96.7493C37.1377 95.5328 38.1631 94.5908 39.4224 94.1298L142.681 56.4702C143.941 56.0121 145.332 56.073 146.547 56.6396C147.763 57.2063 148.704 58.2324 149.165 59.4927L161.522 93.4267C165.474 104.315 164.948 116.327 160.061 126.827C155.173 137.328 146.323 145.459 135.452 149.438Z" fill="#FFFFFF" fill-opacity="1.000000" fill-rule="nonzero"/>
		<path id="Vector" d="M87.2495 98.7036L71.3301 104.509C71.1304 104.582 70.9185 104.615 70.7065 104.606C70.4941 104.597 70.2856 104.546 70.0933 104.456C69.9004 104.366 69.7275 104.239 69.584 104.083C69.4399 103.926 69.3286 103.742 69.2559 103.543C69.1831 103.343 69.1504 103.131 69.1597 102.918C69.1689 102.706 69.2197 102.497 69.3096 102.304C69.3994 102.112 69.5259 101.939 69.6826 101.795C69.8394 101.651 70.0225 101.54 70.2222 101.467L86.1411 95.6609C86.5444 95.5138 86.9897 95.5331 87.3784 95.7144C87.7676 95.8958 88.0688 96.2243 88.2153 96.6277C88.3623 97.0312 88.3433 97.4766 88.1621 97.8659C87.981 98.2552 87.6523 98.5565 87.2495 98.7036L87.2495 98.7036Z" fill="#5C8EE5" fill-opacity="1.000000" fill-rule="nonzero"/>
		<path id="Vector" d="M125.201 91.9109L73.5962 110.732C73.3965 110.805 73.1846 110.838 72.9722 110.829C72.7593 110.82 72.5508 110.769 72.3579 110.679C72.165 110.59 71.9922 110.463 71.8481 110.306C71.7046 110.149 71.5928 109.966 71.52 109.766C71.4473 109.566 71.4146 109.353 71.4238 109.141C71.4331 108.928 71.4844 108.719 71.5742 108.527C71.6641 108.334 71.791 108.161 71.9478 108.017C72.1045 107.873 72.2881 107.762 72.4883 107.689L124.093 88.8683C124.292 88.7955 124.504 88.7627 124.717 88.7719C124.929 88.7811 125.137 88.832 125.33 88.9218C125.522 89.0116 125.696 89.1385 125.839 89.2952C125.983 89.4519 126.094 89.6354 126.167 89.8351C126.24 90.0349 126.272 90.2471 126.263 90.4595C126.254 90.672 126.203 90.8806 126.113 91.0733C126.024 91.2661 125.897 91.4393 125.74 91.5829C125.584 91.7267 125.4 91.8381 125.201 91.9109Z" fill="#5C8EE5" fill-opacity="1.000000" fill-rule="nonzero"/>
		<path id="Vector" d="M127.802 99.0532L76.1973 117.874C75.998 117.947 75.7856 117.98 75.5737 117.97C75.3613 117.961 75.1528 117.91 74.9604 117.821C74.7676 117.731 74.5947 117.604 74.4512 117.447C74.3071 117.29 74.1958 117.107 74.123 116.907C74.0503 116.707 74.0176 116.495 74.0269 116.283C74.0361 116.07 74.0869 115.862 74.1768 115.669C74.2666 115.476 74.3931 115.303 74.5498 115.159C74.7065 115.016 74.8896 114.904 75.0894 114.831L126.694 96.0106C127.097 95.8641 127.542 95.8837 127.93 96.0652C128.319 96.2466 128.62 96.575 128.766 96.9781C128.913 97.3813 128.894 97.8263 128.713 98.2153C128.532 98.6044 128.205 98.9058 127.802 99.0532Z" fill="#5C8EE5" fill-opacity="1.000000" fill-rule="nonzero"/>
		<path id="Vector" d="M130.403 106.196L78.7983 125.016C78.5986 125.09 78.3867 125.123 78.1743 125.114C77.9614 125.105 77.7529 125.054 77.5601 124.964C77.3672 124.874 77.1943 124.747 77.0503 124.591C76.9067 124.434 76.7949 124.25 76.7222 124.05C76.6494 123.85 76.6167 123.638 76.626 123.425C76.6353 123.213 76.6865 123.004 76.7764 122.811C76.8662 122.618 76.9932 122.445 77.1499 122.302C77.3066 122.158 77.4902 122.046 77.6904 121.974L129.295 103.153C129.495 103.08 129.707 103.047 129.919 103.057C130.131 103.066 130.339 103.117 130.532 103.206C130.725 103.296 130.898 103.423 131.042 103.58C131.185 103.737 131.296 103.92 131.369 104.12C131.442 104.32 131.475 104.532 131.465 104.744C131.456 104.957 131.405 105.165 131.315 105.358C131.226 105.551 131.099 105.724 130.942 105.868C130.786 106.011 130.603 106.123 130.403 106.196Z" fill="#5C8EE5" fill-opacity="1.000000" fill-rule="nonzero"/>
		<path id="Vector" d="M133.004 113.338L81.3989 132.159C80.9961 132.306 80.5508 132.287 80.1621 132.105C79.7729 131.924 79.4717 131.596 79.3247 131.192C79.1777 130.789 79.1973 130.343 79.3784 129.954C79.5596 129.565 79.8877 129.263 80.291 129.116L131.896 110.295C132.095 110.223 132.307 110.19 132.52 110.199C132.732 110.208 132.94 110.259 133.133 110.349C133.325 110.439 133.499 110.566 133.642 110.722C133.786 110.879 133.897 111.062 133.97 111.262C134.042 111.462 134.075 111.674 134.066 111.887C134.057 112.099 134.006 112.308 133.917 112.5C133.827 112.693 133.7 112.866 133.543 113.01C133.387 113.154 133.203 113.265 133.003 113.338L133.004 113.338Z" fill="#5C8EE5" fill-opacity="1.000000" fill-rule="nonzero"/>
		<path id="Vector" d="M296.745 133.174L268.491 200.836C267.286 203.699 265.003 205.973 262.138 207.167C259.271 208.361 256.051 208.38 253.171 207.219C251.682 206.618 250.33 205.72 249.198 204.58C248.067 203.439 247.179 202.08 246.589 200.585C246 199.09 245.721 197.49 245.769 195.884C245.817 194.277 246.192 192.697 246.871 191.24L278.373 121.857L295.738 78.8889C294.238 77.3912 293.234 75.4674 292.864 73.379C292.494 71.2906 292.775 69.1389 293.67 67.2161C294.564 65.2932 296.029 63.6926 297.864 62.6317C299.699 61.5707 301.816 61.1008 303.928 61.2858C306.039 61.4709 308.042 62.3019 309.665 63.666C311.288 65.03 312.452 66.861 312.999 68.9102C313.546 70.9593 313.449 73.1273 312.722 75.1194C311.995 77.1117 310.672 78.8316 308.935 80.0455L296.745 133.174Z" fill="#FFB6B6" fill-opacity="1.000000" fill-rule="nonzero"/>
	</g>
</svg>
