<svg width="11.255493" height="12.000000" viewBox="0 0 11.2555 12" fill="none" xmlns="http://www.w3.org/2000/svg" xmlns:xlink="http://www.w3.org/1999/xlink">
	<desc>
			Created with Pixso.
	</desc>
	<defs/>
	<path id="Vector" d="M10.5521 1.94629L6.04993 0.0703125C5.90918 0.0234375 5.76855 0 5.62781 0C5.46362 0 5.323 0.0234375 5.18225 0.0703125L0.680054 1.94629C0.257935 2.13379 0 2.53271 0 2.97803C0 7.64453 2.67322 10.8569 5.18225 11.9121C5.46362 12.0293 5.76855 12.0293 6.04993 11.9121C8.06653 11.0679 11.2555 8.18359 11.2555 2.97803C11.2555 2.53271 10.9741 2.13379 10.5521 1.94629ZM8.79163 4.7251L5.13538 8.14355C4.99463 8.30762 4.73669 8.30762 4.59607 8.14355L2.58618 6.37158C2.44543 6.23096 2.44543 5.99609 2.58618 5.85547L2.87085 5.5708C3.0116 5.43018 3.24609 5.43018 3.38672 5.5708L4.9325 6.91211L8.04602 3.97949C8.18677 3.83887 8.42126 3.83887 8.56201 3.97949L8.79163 4.20947C8.93225 4.3501 8.93225 4.58447 8.79163 4.7251Z" fill="#828A99" fill-opacity="1.000000" fill-rule="evenodd"/>
</svg>
