<svg width="30.000000" height="30.000000" viewBox="0 0 30 30" fill="none" xmlns="http://www.w3.org/2000/svg" xmlns:xlink="http://www.w3.org/1999/xlink">
	<desc>
			Created with Pixso.
	</desc>
	<defs/>
	<rect id="him" width="30.000000" height="30.000000" fill="#FFFFFF" fill-opacity="0"/>
	<path id="Vector" d="M22.3393 12.375L19.6674 15L10.2456 15L17.6518 7.64062C17.9331 7.35938 17.9331 6.89062 17.6518 6.60938C17.3706 6.28125 16.8549 6.28125 16.5737 6.60938L4.52682 18.6094C2.74557 20.4375 2.41745 23.3906 4.10495 25.3594C5.08932 26.4375 6.40182 27 7.7612 27C9.02682 27 10.2456 26.5312 11.1831 25.5938L23.4174 13.4062C23.6987 13.125 23.6987 12.6562 23.4174 12.375C23.1362 12.0469 22.6206 12.0469 22.3393 12.375ZM10.1518 24.5625C9.49557 25.1719 8.65182 25.5 7.7612 25.5C6.77682 25.5 5.8862 25.0781 5.22995 24.375C4.10495 23.0625 4.29245 21 5.60495 19.6875L8.74557 16.5L18.1674 16.5L10.1518 24.5625ZM26.7924 11.4844L18.5424 3.23438C18.4018 3.09375 18.2143 3 18.0268 3C17.7924 3 17.6049 3.09375 17.4643 3.23438C17.1831 3.51562 17.1831 4.03125 17.4643 4.3125L25.7143 12.5625C25.8549 12.7031 26.0424 12.75 26.2768 12.75C26.4643 12.75 26.6518 12.7031 26.7924 12.5625C27.0737 12.2812 27.0737 11.7656 26.7924 11.4844Z" fill="#5C8EE6" fill-opacity="1.000000" fill-rule="nonzero"/>
</svg>
