<svg width="30.000000" height="30.000000" viewBox="0 0 30 30" fill="none" xmlns="http://www.w3.org/2000/svg" xmlns:xlink="http://www.w3.org/1999/xlink">
	<desc>
			Created with Pixso.
	</desc>
	<defs/>
	<rect id="brush" width="30.000000" height="30.000000" fill="#FFFFFF" fill-opacity="0"/>
	<path id="Vector" d="M22.5 3L7.5 3C6.65625 3 6 3.70312 6 4.5L6 18C6 19.6875 7.3125 21 9 21L12 21L12 24C12 25.6875 13.3125 27 15 27C16.6406 27 18 25.6875 18 24L18 21L21 21C22.6406 21 24 19.6875 24 18L24 4.5C24 3.70312 23.2969 3 22.5 3ZM22.5 18C22.5 18.8438 21.7969 19.5 21 19.5L16.5 19.5L16.5 24C16.5 24.8438 15.7969 25.5 15 25.5C14.1562 25.5 13.5 24.8438 13.5 24L13.5 19.5L9 19.5C8.15625 19.5 7.5 18.8438 7.5 18L7.5 16.5L22.5 16.5L22.5 18ZM22.5 15L7.5 15L7.5 4.5L22.5 4.5L22.5 15Z" fill="#5C8EE6" fill-opacity="1.000000" fill-rule="nonzero"/>
</svg>
