<svg width="30.000000" height="30.000000" viewBox="0 0 30 30" fill="none" xmlns="http://www.w3.org/2000/svg" xmlns:xlink="http://www.w3.org/1999/xlink">
	<desc>
			Created with Pixso.
	</desc>
	<defs/>
	<rect id="shirt" width="30.000000" height="30.000000" fill="#FFFFFF" fill-opacity="0"/>
	<path id="Vector" d="M29.8813 8.54883C29.6938 7.98633 29.3188 7.56445 28.8032 7.2832L20.5063 3.06445C20.1782 2.92383 19.8032 3.01758 19.5688 3.29883C18.8188 4.37695 16.9438 5.08008 14.9751 5.08008C13.0532 5.08008 11.1782 4.37695 10.4282 3.29883C10.1938 3.01758 9.81885 2.92383 9.49072 3.06445L1.19385 7.2832C0.678223 7.56445 0.303223 7.98633 0.115723 8.54883C-0.0717773 9.11133 -0.0249023 9.67383 0.209473 10.1895L2.50635 14.9238C3.02197 15.9551 4.33447 16.377 5.36572 15.9082L7.52197 14.9707L7.52197 24.8145C7.52197 26.0332 8.45947 26.9707 9.67822 26.9707L20.3188 26.9707C21.5376 26.9707 22.522 26.0332 22.522 24.8145L22.4751 14.9707L24.5845 15.8613C25.6626 16.377 26.9751 15.9551 27.4907 14.877L29.7876 10.1895C30.022 9.67383 30.0688 9.11133 29.8813 8.54883ZM28.4282 9.5332L26.1782 14.2207C25.9907 14.5488 25.5688 14.6895 25.2407 14.502L22.0532 13.1426C21.8188 13.0488 21.5376 13.0957 21.3501 13.2363C21.1157 13.377 20.9751 13.6113 20.9751 13.8457L21.022 24.8145C21.022 25.1895 20.6938 25.4707 20.3188 25.4707L9.67822 25.4707C9.30322 25.4707 9.02197 25.1895 9.02197 24.8145L9.02197 13.8457C9.02197 13.6113 8.88135 13.377 8.64697 13.2363C8.55322 13.1426 8.4126 13.0957 8.27197 13.0957C8.13135 13.0957 8.0376 13.1426 7.94385 13.1426L4.75635 14.502C4.42822 14.6895 4.00635 14.5488 3.86572 14.2207L1.56885 9.5332C1.4751 9.3457 1.4751 9.20508 1.52197 9.01758C1.56885 8.87695 1.70947 8.73633 1.89697 8.64258L9.63135 4.6582C10.8032 5.87695 12.8188 6.58008 15.022 6.58008C17.2251 6.58008 19.1938 5.87695 20.3657 4.6582L28.1001 8.64258C28.2876 8.73633 28.4282 8.87695 28.4751 9.01758C28.522 9.20508 28.522 9.3457 28.4282 9.5332Z" fill="#5C8EE6" fill-opacity="1.000000" fill-rule="nonzero"/>
</svg>
