<svg width="30.000000" height="30.000000" viewBox="0 0 30 30" fill="none" xmlns="http://www.w3.org/2000/svg" xmlns:xlink="http://www.w3.org/1999/xlink">
	<desc>
			Created with Pixso.
	</desc>
	<defs/>
	<rect id="bricks" width="30.000000" height="30.000000" fill="#FFFFFF" fill-opacity="0"/>
	<path id="Vector" d="M24.5 4L6.5 4C5.65625 4 5 4.70312 5 5.5L5 8.5C5 9.34375 5.65625 10 6.5 10L6.5 24.25C6.5 24.625 6.73438 24.9531 7.10938 25C7.57812 25.0938 8 24.7188 8 24.25L8 22L18.5 22L18.5 24.25C18.5 24.6719 18.8281 25 19.2031 25C19.5781 25 20 24.6719 20 24.25L20 22L23 22L23 24.25C23 24.625 23.2344 24.9531 23.6094 25C24.0781 25.0938 24.5 24.7188 24.5 24.25L24.5 10C25.2969 10 26 9.34375 26 8.5L26 5.5C26 4.70312 25.2969 4 24.5 4ZM11 14.5L8 14.5L8 10L11 10L11 14.5ZM8 20.5L8 16L14 16L14 20.5L8 20.5ZM23 20.5L15.5 20.5L15.5 16L23 16L23 20.5ZM23 14.5L12.5 14.5L12.5 10L23 10L23 14.5ZM24.5 8.5L6.5 8.5L6.5 5.5L24.5 5.5L24.5 8.5Z" fill="#5C8EE6" fill-opacity="1.000000" fill-rule="nonzero"/>
</svg>
